<svg id="Layer_1" data-name="Layer 1" xmlns="http://www.w3.org/2000/svg" viewBox="0 0 277.76 139.35"><defs><style>.cls-1{fill:#231f20;}</style></defs><title>BullLogo</title><path class="cls-1" d="M355,330.53c-2.6,4.5-5.16,8.23-6.89,12.31-.58,1.37.43,4.17,1.64,5.41a49.38,49.38,0,0,1,13.66,27.38H336.17a6.25,6.25,0,0,1,0-2.3c3.36-7.68,0-12.45-6.73-15.79-.74-.36-1.33-1-2.07-1.4-5.78-3-9.25-7.33-8.88-14.18a17.55,17.55,0,0,0-.72-3.8c-14.33,4.34-28,9-34.08,24.37-.75,1.9.1,4.49.41,6.73.27,2,.82,3.87,1.35,6.26H257.12c3.54-13,7.47-25.69,10.35-38.61,1.57-7,4.71-11.71,11.52-14,4.34-1.46,6.92-4.6,8.81-8.83,4.05-9.1,8.58-18,13.26-27.65l-30.23-6.65,27.59-30.14-3.5-2,15.87-6.38-28.55,34.43c16.34,4.44,31.88,3.34,47.69,1.53,16.46-1.89,30.78-9.43,45.85-15,22.18-8.15,44.07-17.08,66.17-25.46,2-.77,4.76-.37,7,.2,8,2.07,13.21,7.29,17.43,14.39,7.06,11.87,15,23.2,22.45,34.86,1.62,2.54,3,3.19,6,2.15a21.37,21.37,0,0,1,9.08-.77c10.3,1.17,20.55,2.72,31,4.14l-12,10.78,9,2.5c-7.73,7.22-17.9,2-27.15,5.87,4.9,5.26,1.89,10.34,1,15.64-.45,2.6.94,5.72,2,8.38,4.16,10,4.07,9.79-3.07,17.71-3,3.32-6.31,2.27-9.65,2.05-3.72-.25-7.4-.87-9.6,3.58-2.79-2.62-5.5-4.86-7.83-7.43-4.16-4.61-8.94-7.76-15.3-8.38-1.48-.14-2.93-1.31-4.23-2.24-1.71-1.22-3.26-5-5.33-2.12-1.46,2-1.4,6.08-.42,8.61s3.77,4.6,6.07,6.49C465.51,359,469,367,472.65,375.57H443.36c5.21-15.64-9.8-17.08-17.06-24.25l-16.63,3.83,9.85,20.52H389.69c6.47-7.48.56-10.38-4.13-13.77-1.62-1.17-3.1-2.56-4.8-3.58-3.19-1.92-4.64-4.33-3.89-8.24a5.67,5.67,0,0,0-1.65-4.65C368.8,340.43,362.13,335.74,355,330.53Zm53.14-75-60.71,24.19,2.81,4.84c-4.31-1-8.5-3-12.48-2.63-7.59.66-15.07,2.62-22.58,4.13-1.24.25-2.87.65-3.48,1.55-5.84,8.57-11.51,17.27-17.22,25.93l.76.77L307,308.4c-9.32,7.82-19.07,14.79-28.73,21.86-1.41,1-3.09,2.39-3.54,3.92-2.1,7.29-3.82,14.69-5.68,22.06l1.41,1.09,1.25-2.61c6.36-13.37,17.34-20.3,31.55-22.93a39,39,0,0,0,9-2.91c5.09-2.33,10.29-4.6,14.93-7.67,8-5.3,15.63-11.19,23.41-16.84l.43.42L348,309l34.2,15.07,2-6c0,9.62-.05,18.95,0,28.27,0,1.75,0,4.15,1.1,5.12,4.66,4.3,9.7,8.19,14.6,12.23l.81-.78-7.89-19.25c14.5-6.39,27.37-14.76,37.49-26.79l-4.27,10.69c5.7-1.6,10.42-2.6,14.86-4.33a8.38,8.38,0,0,0,4.15-4.61c1.39-3.88,2.07-8,3-12,1.18,3.38,1.46,6.71,2.16,9.94,2.26,10.48,9.08,17.37,18.42,21.72,5.67,2.64,11.8,4.28,18.39,6.6l-6.3,1.37c2.28,1.84,3.66,3.89,5.25,4.07a56.75,56.75,0,0,0,13,.07c3.94-.47,7.32-8.06,5.67-11.8-2-4.56-4-9.11-5.27-11.87,1.57-3.28,3.4-5.32,3.3-7.26-.2-3.85-1.61-7.55-5.64-9.16,2.57-6.84,6.91-11,14.91-10.15a19.4,19.4,0,0,0,7.91-.82c3.28-1.08,6.32-2.92,10.12-4.76-9.49-.82-17.55-1.37-25.58-2.25s-14.1,3.38-21,6.88c-5-3.52-9.84-9.44-18.33-4.52l11.51,5.42c-8.59,3.78-11.37-4.64-16.47-8.66,6.85-.61,13.54-5.35,20.39.19,1.1.89,3.39.31,6.53.48-10.53-16-19.74-30.87-30-45-2.42-3.32-9-6.37-12.66-5.45-7.84,2-16,5.39-22.22,10.45-10.61,8.62-19.82,19-28.8,27.77C393.34,270.11,403.13,264.55,408.14,255.53Z" transform="translate(-257.12 -236.32)"/><path class="cls-1" d="M487,312.74l2.68,6.34a1.38,1.38,0,0,1-2.08,1.66l-6-4.31a1.38,1.38,0,0,1,.09-2.31l3.37-2A1.38,1.38,0,0,1,487,312.74Z" transform="translate(-257.12 -236.32)"/></svg>