<svg id="Layer_1" data-name="Layer 1" xmlns="http://www.w3.org/2000/svg" viewBox="0 0 565.88 139.35"><title>BullLogoText</title><path d="M97.88,94.21c-2.6,4.5-5.16,8.23-6.89,12.31-.58,1.37.43,4.17,1.64,5.41a49.38,49.38,0,0,1,13.66,27.38H79.05a6.25,6.25,0,0,1,0-2.3c3.36-7.68,0-12.45-6.73-15.79-.74-.36-1.33-1-2.07-1.4-5.78-3-9.25-7.33-8.88-14.18a17.55,17.55,0,0,0-.72-3.8c-14.33,4.34-28,9-34.08,24.37-.75,1.9.1,4.49.41,6.73.27,2,.82,3.87,1.35,6.26H0c3.54-13,7.47-25.69,10.35-38.61,1.57-7,4.71-11.71,11.52-14,4.34-1.46,6.92-4.6,8.81-8.83,4.05-9.1,8.58-18,13.26-27.65L13.71,43.46,41.3,13.32l-3.5-2L53.67,4.94,25.12,39.37C41.46,43.81,57,42.71,72.81,40.9c16.46-1.89,30.78-9.43,45.85-15C140.88,17.76,162.74,8.76,184.88.42c2-.77,4.76-.37,7,.2,8,2.07,13.21,7.29,17.43,14.39,7.06,11.87,15,23.2,22.45,34.86,1.62,2.54,3,3.19,6,2.15a21.37,21.37,0,0,1,9.08-.77c10.3,1.17,20.55,2.72,31,4.14l-12,10.78,9,2.5c-7.73,7.22-17.9,2-27.15,5.87,4.9,5.26,1.89,10.34,1,15.64-.45,2.6.94,5.72,2,8.38,4.16,10,4.07,9.79-3.07,17.71-3,3.32-6.31,2.27-9.65,2-3.72-.25-7.4-.87-9.6,3.58-2.79-2.62-5.5-4.86-7.83-7.43-4.16-4.61-8.94-7.76-15.3-8.38-1.48-.14-2.93-1.31-4.23-2.24-1.71-1.22-3.26-5-5.33-2.12-1.46,2-1.4,6.08-.42,8.61s3.77,4.6,6.07,6.49c7.1,5.83,10.58,13.88,14.25,22.41H186.24c5.21-15.64-9.8-17.08-17.06-24.25l-16.63,3.83,9.85,20.52H132.57c6.47-7.48.56-10.38-4.13-13.77-1.62-1.17-3.1-2.56-4.8-3.58-3.19-1.92-4.64-4.33-3.89-8.24a5.67,5.67,0,0,0-1.65-4.65C111.68,104.1,105,99.41,97.88,94.21Zm53.14-75L90.31,43.4l2.81,4.84c-4.31-1-8.5-3-12.48-2.63-7.59.66-15.07,2.62-22.58,4.13-1.24.25-2.87.65-3.48,1.55-5.84,8.57-11.51,17.27-17.22,25.93l.76.77,11.76-5.92c-9.32,7.82-19.07,14.79-28.73,21.86-1.41,1-3.09,2.39-3.54,3.92-2.1,7.29-3.82,14.69-5.68,22.06L13.34,121l1.25-2.61C21,105,31.93,98.09,46.14,95.46a39,39,0,0,0,9-2.91c5.09-2.33,10.29-4.6,14.93-7.67,8-5.3,15.63-11.19,23.41-16.84l.43.42-3,4.3,34.17,15,2-6c0,9.62-.05,19,0,28.27,0,1.75,0,4.15,1.1,5.12,4.66,4.3,9.7,8.19,14.6,12.23l.81-.78-7.89-19.25C150.17,101,163,92.59,173.16,80.56l-4.27,10.69c5.7-1.6,10.42-2.6,14.86-4.33a8.38,8.38,0,0,0,4.15-4.61,107.37,107.37,0,0,0,3-12c1.18,3.38,1.46,6.71,2.16,9.94,2.26,10.48,9.08,17.37,18.42,21.72,5.67,2.64,11.8,4.28,18.39,6.6l-6.3,1.37c2.28,1.84,3.66,3.89,5.25,4.07a56.75,56.75,0,0,0,13,.07c3.94-.47,7.32-8.06,5.67-11.8-2-4.56-4-9.11-5.27-11.87,1.57-3.28,3.4-5.32,3.3-7.26-.2-3.85-1.61-7.55-5.64-9.16,2.57-6.84,6.91-11,14.91-10.15A19.4,19.4,0,0,0,262.7,63c3.28-1.08,6.32-2.92,10.12-4.76-9.49-.82-17.55-1.37-25.58-2.25s-14.1,3.38-21,6.88c-5-3.52-9.84-9.44-18.33-4.52l11.57,5.39c-8.59,3.78-11.37-4.64-16.47-8.66,6.85-.61,13.54-5.35,20.39.19,1.1.89,3.39.31,6.53.48-10.53-16-19.74-30.87-30-45-2.42-3.32-9-6.37-12.66-5.45-7.84,2-16,5.39-22.22,10.45-10.61,8.62-19.82,19-28.8,27.77,0-9.78,9.76-15.32,14.77-24.34Z" transform="translate(0 0.01)"/><path d="M229.88,76.41l2.68,6.34a1.38,1.38,0,0,1-2.08,1.66l-6-4.31a1.38,1.38,0,0,1,.09-2.31l3.37-2a1.38,1.38,0,0,1,1.88.51Z" transform="translate(0 0.01)"/><path d="M447.78,109.1a5.67,5.67,0,0,0-1.65,4.65c.75,3.91-.7,6.32-3.89,8.24-1.7,1-3.18,2.41-4.8,3.58-4.69,3.39-10.6,6.29-4.13,13.77H403.48l9.85-20.52L396.7,115c-7.26,7.17-22.27,8.61-17.06,24.25H350.3c3.67-8.53,7.15-16.58,14.25-22.41,2.3-1.89,5.09-4,6.07-6.49s1-6.61-.42-8.61c-2.07-2.88-3.62.9-5.33,2.12-1.3.93-2.75,2.1-4.23,2.24-6.36.62-11.14,3.77-15.3,8.38-2.33,2.57-5,4.81-7.83,7.43-2.2-4.45-5.88-3.83-9.6-3.58-3.34.22-6.65,1.27-9.65-2-7.14-7.92-7.23-7.71-3.07-17.71,1.06-2.66,2.45-5.78,2-8.38-.89-5.3-3.9-10.38,1-15.64-9.25-3.87-19.42,1.35-27.15-5.87l9-2.5L288,55.39c10.45-1.42,20.7-3,31-4.14a21.37,21.37,0,0,1,9.08.77c3,1,4.38.39,6-2.15,7.45-11.66,15.39-23,22.45-34.86C360.79,7.91,366,2.69,374,.62c2.24-.57,5-1,7-.2,22.14,8.34,44,17.34,66.22,25.48,15.07,5.57,29.39,13.11,45.85,15,15.81,1.81,31.35,2.91,47.69-1.53L512.21,4.94l15.87,6.38-3.5,2,27.59,30.14-30.23,6.65c4.68,9.65,9.21,18.55,13.26,27.65,1.89,4.23,4.47,7.37,8.81,8.83,6.81,2.29,9.95,7,11.52,14,2.88,12.92,6.81,25.61,10.35,38.61H537.55c.53-2.39,1.08-4.26,1.35-6.26.31-2.24,1.16-4.83.41-6.73-6.08-15.37-19.75-20-34.08-24.37a17.55,17.55,0,0,0-.72,3.8c.37,6.85-3.1,11.18-8.88,14.18-.74.4-1.33,1-2.07,1.4-6.73,3.34-10.09,8.11-6.73,15.79a6.25,6.25,0,0,1,0,2.3H459.59a49.38,49.38,0,0,1,13.66-27.38c1.21-1.24,2.22-4,1.64-5.41-1.73-4.08-4.29-7.81-6.89-12.31C460.87,99.41,454.2,104.1,447.78,109.1ZM414.86,19.2c5,9,14.8,14.56,14.77,24.34-9-8.77-18.19-19.15-28.8-27.77-6.22-5.06-14.38-8.45-22.22-10.45-3.66-.92-10.24,2.13-12.66,5.45-10.26,14.13-19.47,29-30,45,3.14-.17,5.43.41,6.53-.48,6.85-5.54,13.54-.8,20.39-.19-5.1,4-7.88,12.44-16.47,8.66L358,58.37c-8.49-4.92-13.33,1-18.33,4.52-6.9-3.5-13-7.76-21-6.88s-16.09,1.43-25.58,2.25c3.8,1.84,6.84,3.68,10.12,4.76a19.4,19.4,0,0,0,7.91.82c8-.85,12.34,3.31,14.91,10.15-4,1.61-5.44,5.31-5.64,9.16-.1,1.94,1.73,4,3.3,7.26-1.27,2.76-3.27,7.31-5.27,11.87-1.65,3.74,1.73,11.33,5.67,11.8a56.75,56.75,0,0,0,13-.07c1.59-.18,3-2.23,5.25-4.07l-6.3-1.37c6.59-2.32,12.72-4,18.39-6.6,9.34-4.35,16.16-11.24,18.42-21.72.7-3.23,1-6.56,2.16-9.94a107.37,107.37,0,0,0,3,12,8.38,8.38,0,0,0,4.15,4.61c4.44,1.73,9.16,2.73,14.86,4.33l-4.27-10.69c10.12,12,23,20.4,37.49,26.79l-7.89,19.25.81.78c4.9-4,9.94-7.93,14.6-12.23,1.1-1,1.1-3.37,1.1-5.12.05-9.32,0-18.65,0-28.27l2,6,34.17-15-3-4.3.43-.42c7.78,5.65,15.41,11.54,23.41,16.84,4.64,3.07,9.84,5.34,14.93,7.67a39,39,0,0,0,9,2.91c14.21,2.63,25.19,9.56,31.55,22.93l1.25,2.61,1.41-1.09c-1.86-7.37-3.58-14.77-5.68-22.06-.45-1.53-2.13-2.92-3.54-3.92-9.66-7.07-19.41-14-28.73-21.86L527.76,78l.76-.77c-5.71-8.66-11.38-17.36-17.22-25.93-.61-.9-2.24-1.3-3.48-1.55-7.51-1.51-15-3.47-22.58-4.13-4-.37-8.17,1.63-12.48,2.63l2.81-4.84L414.86,19.21Z" transform="translate(0 0.01)"/><path d="M336.06,76.3a1.38,1.38,0,0,1,1.88-.51l3.37,2a1.38,1.38,0,0,1,.09,2.31l-6,4.31a1.38,1.38,0,0,1-2.08-1.66L336,76.41Z" transform="translate(0 0.01)"/></svg>