<?xml version="1.0" encoding="utf-8"?>
<!-- Generator: Adobe Illustrator 21.0.2, SVG Export Plug-In . SVG Version: 6.00 Build 0)  -->
<svg version="1.1" id="Layer_1" xmlns="http://www.w3.org/2000/svg" xmlns:xlink="http://www.w3.org/1999/xlink" x="0px" y="0px"
	 viewBox="0 0 277.8 139.4" style="enable-background:new 0 0 277.8 139.4;" xml:space="preserve">
<style type="text/css">
	.st0{fill:#FFFFFF;}
</style>
<title>BullLogo</title>
<path class="st0" d="M97.9,94.2c-2.6,4.5-5.2,8.2-6.9,12.3c-0.6,1.4,0.4,4.2,1.6,5.4c7.3,7.5,12.1,17,13.7,27.4H79
	c-0.1-0.8-0.1-1.5,0-2.3c3.4-7.7,0-12.5-6.7-15.8c-0.7-0.4-1.3-1-2.1-1.4c-5.8-3-9.2-7.3-8.9-14.2c-0.1-1.3-0.3-2.6-0.7-3.8
	c-14.3,4.3-28,9-34.1,24.4c-0.8,1.9,0.1,4.5,0.4,6.7c0.3,2,0.8,3.9,1.4,6.3H0c3.5-13,7.5-25.7,10.4-38.6c1.6-7,4.7-11.7,11.5-14
	c4.3-1.5,6.9-4.6,8.8-8.8c4-9.1,8.6-18,13.3-27.6l-30.2-6.6l27.6-30.1l-3.5-2l15.9-6.4L25.1,39.4c16.3,4.4,31.9,3.3,47.7,1.5
	c16.5-1.9,30.8-9.4,45.9-15c22.2-8.1,44.1-17.1,66.2-25.5c2-0.8,4.8-0.4,7,0.2c8,2.1,13.2,7.3,17.4,14.4c7.1,11.9,15,23.2,22.5,34.9
	c1.6,2.5,3,3.2,6,2.1c2.9-0.9,6-1.2,9.1-0.8c10.3,1.2,20.6,2.7,31,4.1l-12,10.8l9,2.5c-7.7,7.2-17.9,2-27.1,5.9
	c4.9,5.3,1.9,10.3,1,15.6c-0.5,2.6,0.9,5.7,2,8.4c4.2,10,4.1,9.8-3.1,17.7c-3,3.3-6.3,2.3-9.6,2c-3.7-0.2-7.4-0.9-9.6,3.6
	c-2.8-2.6-5.5-4.9-7.8-7.4c-4.2-4.6-8.9-7.8-15.3-8.4c-1.5-0.1-2.9-1.3-4.2-2.2c-1.7-1.2-3.3-5-5.3-2.1c-1.5,2-1.4,6.1-0.4,8.6
	s3.8,4.6,6.1,6.5c7.1,5.8,10.6,13.9,14.2,22.4h-29.3c5.2-15.6-9.8-17.1-17.1-24.2l-16.6,3.8l9.9,20.5h-29.8
	c6.5-7.5,0.6-10.4-4.1-13.8c-1.6-1.2-3.1-2.6-4.8-3.6c-3.2-1.9-4.6-4.3-3.9-8.2c0.2-1.7-0.4-3.4-1.6-4.6
	C111.7,104.1,105,99.4,97.9,94.2z M151,19.2L90.3,43.4l2.8,4.8c-4.3-1-8.5-3-12.5-2.6c-7.6,0.7-15.1,2.6-22.6,4.1
	c-1.2,0.2-2.9,0.6-3.5,1.5c-5.8,8.6-11.5,17.3-17.2,25.9l0.8,0.8L49.8,72c-9.3,7.8-19.1,14.8-28.7,21.9c-1.4,1-3.1,2.4-3.5,3.9
	c-2.1,7.3-3.8,14.7-5.7,22.1l1.4,1.1l1.2-2.6c6.4-13.4,17.3-20.3,31.5-22.9c3.1-0.6,6.1-1.6,9-2.9c5.1-2.3,10.3-4.6,14.9-7.7
	c8-5.3,15.6-11.2,23.4-16.8l0.4,0.4l-3,4.3l34.2,15.1l2-6c0,9.6,0,19,0,28.3c0,1.8,0,4.1,1.1,5.1c4.7,4.3,9.7,8.2,14.6,12.2l0.8-0.8
	l-7.9-19.2c14.5-6.4,27.4-14.8,37.5-26.8l-4.3,10.7c5.7-1.6,10.4-2.6,14.9-4.3c1.9-0.9,3.4-2.6,4.1-4.6c1.4-3.9,2.1-8,3-12
	c1.2,3.4,1.5,6.7,2.2,9.9c2.3,10.5,9.1,17.4,18.4,21.7c5.7,2.6,11.8,4.3,18.4,6.6l-6.3,1.4c2.3,1.8,3.7,3.9,5.2,4.1
	c4.3,0.5,8.7,0.5,13,0.1c3.9-0.5,7.3-8.1,5.7-11.8c-2-4.6-4-9.1-5.3-11.9c1.6-3.3,3.4-5.3,3.3-7.3c-0.2-3.9-1.6-7.5-5.6-9.2
	c2.6-6.8,6.9-11,14.9-10.1c2.7,0.3,5.4,0,7.9-0.8c3.3-1.1,6.3-2.9,10.1-4.8c-9.5-0.8-17.5-1.4-25.6-2.2s-14.1,3.4-21,6.9
	c-5-3.5-9.8-9.4-18.3-4.5l11.5,5.4c-8.6,3.8-11.4-4.6-16.5-8.7c6.9-0.6,13.5-5.4,20.4,0.2c1.1,0.9,3.4,0.3,6.5,0.5
	c-10.5-16-19.7-30.9-30-45c-2.4-3.3-9-6.4-12.7-5.4c-7.8,2-16,5.4-22.2,10.4c-10.6,8.6-19.8,19-28.8,27.8
	C136.2,33.8,146,28.2,151,19.2L151,19.2z"/>
<path class="st0" d="M229.9,76.4l2.8,6.5c0.5,1.2-0.9,2.4-2,1.6l-6.2-4.4c-0.8-0.6-0.7-1.7,0.1-2.2l3.5-2.1
	C228.7,75.3,229.6,75.6,229.9,76.4z"/>
</svg>
