<svg id="Layer_1" data-name="Layer 1" xmlns="http://www.w3.org/2000/svg" xmlns:xlink="http://www.w3.org/1999/xlink" viewBox="0 0 582.19 170.01"><defs><style>.cls-1{opacity:0.75;isolation:isolate;}.cls-2{fill:#fff;}</style></defs><title>BullLogoText</title><image class="cls-1" width="309" height="171" transform="scale(1 0.99)" xlink:href="DE928E6C58677D8F.png"/><path class="cls-2" d="M112.8,102.8c-2.6,4.5-5.2,8.2-6.9,12.3-.6,1.4.4,4.2,1.6,5.4a50.45,50.45,0,0,1,13.7,27.4H94a8.85,8.85,0,0,1,0-2.3c3.4-7.7,0-12.5-6.7-15.8-.7-.4-1.3-1-2.1-1.4-5.8-3-9.2-7.3-8.9-14.2a16,16,0,0,0-.7-3.8c-14.3,4.3-28,9-34.1,24.4-.8,1.9.1,4.5.4,6.7.3,2,.8,3.9,1.4,6.3H14.9c3.5-13,7.5-25.7,10.4-38.6,1.6-7,4.7-11.7,11.5-14,4.3-1.5,6.9-4.6,8.8-8.8,4.1-9.1,8.6-18,13.3-27.6L28.7,52.2,56.3,22.1l-3.5-2,15.9-6.4L40,48c16.3,4.4,31.9,3.3,47.7,1.5,16.5-1.9,30.8-9.4,45.9-15,22.2-8.1,44.1-17.1,66.2-25.5,2-.8,4.8-.4,7,.2,8,2.1,13.2,7.3,17.4,14.4,7.1,11.9,15,23.2,22.5,34.9,1.6,2.5,3,3.2,6,2.1a21.44,21.44,0,0,1,9.1-.8c10.3,1.2,20.5,2.7,31,4.1l-12,10.8,9,2.5c-7.7,7.2-17.9,2-27.1,5.9,4.9,5.3,1.9,10.3,1,15.6-.5,2.6.9,5.7,2,8.4,4.2,10,4.1,9.8-3.1,17.7-3,3.3-6.3,2.3-9.6,2-3.7-.2-7.4-.9-9.6,3.6-2.8-2.6-5.5-4.9-7.8-7.4-4.2-4.6-8.9-7.8-15.3-8.4-1.5-.1-2.9-1.3-4.2-2.2-1.7-1.2-3.3-5-5.3-2.1-1.5,2-1.4,6.1-.4,8.6s3.8,4.6,6.1,6.5c7.1,5.8,10.6,13.9,14.2,22.4H201.4c5.2-15.6-9.8-17.1-17.1-24.2l-16.6,3.8,9.9,20.5H147.8c6.5-7.5.6-10.4-4.1-13.8a42.91,42.91,0,0,0-4.8-3.6c-3.2-1.9-4.6-4.3-3.9-8.2a5.6,5.6,0,0,0-1.6-4.6C126.6,112.7,119.9,108,112.8,102.8Zm53.1-75L105.2,52l2.8,4.8c-4.3-1-8.5-3-12.5-2.6-7.6.7-15.1,2.6-22.6,4.1-1.2.2-2.9.6-3.5,1.5-5.8,8.6-11.5,17.3-17.2,25.9l.8.8,11.8-5.9c-9.3,7.8-19.1,14.8-28.7,21.9-1.4,1-3.1,2.4-3.5,3.9-2.1,7.3-3.8,14.7-5.7,22.1l1.4,1.1,1.2-2.6c6.4-13.4,17.3-20.3,31.5-22.9a41.1,41.1,0,0,0,9-2.9c5.1-2.3,10.3-4.6,14.9-7.7,8-5.3,15.6-11.2,23.4-16.8l.4.4-3,4.3,34.2,15,2-6c0,9.6-.1,19,0,28.3,0,1.8,0,4.1,1.1,5.1,4.7,4.3,9.7,8.2,14.6,12.2l.8-.8L150.5,116c14.5-6.4,27.4-14.8,37.5-26.8l-4.3,10.7c5.7-1.6,10.4-2.6,14.9-4.3a8.08,8.08,0,0,0,4.1-4.6,116.9,116.9,0,0,0,3-12c1.2,3.4,1.5,6.7,2.2,9.9,2.3,10.5,9.1,17.4,18.4,21.7,5.7,2.6,11.8,4.3,18.4,6.6l-6.3,1.4c2.3,1.8,3.7,3.9,5.2,4.1a62.77,62.77,0,0,0,13,.1c3.9-.5,7.3-8.1,5.7-11.8-2-4.6-4-9.1-5.3-11.9,1.6-3.3,3.4-5.3,3.3-7.3-.2-3.9-1.6-7.5-5.6-9.2,2.6-6.8,6.9-11,14.9-10.1a19.06,19.06,0,0,0,7.9-.8c3.3-1.1,6.3-2.9,10.1-4.8-9.5-.8-17.5-1.4-25.6-2.2s-14.1,3.4-21,6.9c-5-3.5-9.8-9.4-18.3-4.5l11.6,5.4c-8.6,3.8-11.4-4.6-16.5-8.7,6.9-.6,13.5-5.4,20.4.2,1.1.9,3.4.3,6.5.5-10.5-16-19.7-30.9-30-45-2.4-3.3-9-6.4-12.7-5.4-7.8,2-16,5.4-22.2,10.4-10.6,8.6-19.8,19-28.8,27.8.1-9.9,9.9-15.5,14.9-24.5Z" transform="translate(-6.91)"/><image class="cls-1" width="42" height="42" transform="translate(223 76) scale(0.95)" xlink:href="DE928E6C58677D8A.png"/><path class="cls-2" d="M244.8,85l2.7,6.3a1.36,1.36,0,0,1-.7,1.8h0a1.4,1.4,0,0,1-1.4-.2l-6-4.3a1.3,1.3,0,0,1-.4-1.8.1.1,0,0,1,.1-.1c.1-.2.3-.3.4-.4l3.4-2a1.28,1.28,0,0,1,1.8.4.1.1,0,0,0,.1.1V85Z" transform="translate(-6.91)"/><image class="cls-1" width="309" height="171" transform="translate(274.17) scale(1 0.99)" xlink:href="DE928E6C58677D89.png"/><path class="cls-2" d="M462.7,117.7a5.6,5.6,0,0,0-1.6,4.6c.8,3.9-.7,6.3-3.9,8.2a42.91,42.91,0,0,0-4.8,3.6c-4.7,3.4-10.6,6.3-4.1,13.8H418.5l9.9-20.5-16.6-3.8c-7.3,7.2-22.3,8.6-17.1,24.2H365.4c3.7-8.5,7.1-16.6,14.2-22.4,2.3-1.9,5.1-4,6.1-6.5s1-6.6-.4-8.6c-2.1-2.9-3.6.9-5.3,2.1-1.3.9-2.8,2.1-4.2,2.2-6.4.6-11.1,3.8-15.3,8.4-2.3,2.6-5,4.8-7.8,7.4-2.2-4.4-5.9-3.8-9.6-3.6-3.3.2-6.6,1.3-9.6-2-7.1-7.9-7.2-7.7-3.1-17.7,1.1-2.7,2.5-5.8,2-8.4-.9-5.3-3.9-10.4,1-15.6-9.2-3.9-19.4,1.4-27.1-5.9l9-2.5-12-10.8c10.5-1.4,20.7-3,31-4.1a21.44,21.44,0,0,1,9.1.8c3,1,4.4.4,6-2.1,7.5-11.7,15.4-23,22.5-34.9,3.8-7.1,9-12.3,17-14.4,2.2-.6,5-1,7-.2,22.1,8.3,44,17.3,66.2,25.5,15.1,5.6,29.4,13.1,45.9,15,15.8,1.8,31.4,2.9,47.7-1.5L527.1,13.5,543,19.9l-3.5,2L567.1,52l-30.2,6.6c4.7,9.6,9.2,18.5,13.3,27.6,1.9,4.2,4.5,7.4,8.8,8.8,6.8,2.3,10,7,11.5,14,2.9,12.9,6.8,25.6,10.4,38.6H552.6c.5-2.4,1.1-4.3,1.4-6.3.3-2.2,1.2-4.8.4-6.7-6.1-15.4-19.8-20-34.1-24.4a16,16,0,0,0-.7,3.8c.4,6.9-3.1,11.2-8.9,14.2-.7.4-1.3,1-2.1,1.4-6.7,3.3-10.1,8.1-6.7,15.8a8.85,8.85,0,0,1,0,2.3H474.7a48.5,48.5,0,0,1,13.7-27.4c1.2-1.2,2.2-4,1.6-5.4-1.7-4.1-4.3-7.8-6.9-12.3C475.8,108,469.1,112.7,462.7,117.7ZM429.8,27.8c5,9,14.8,14.6,14.8,24.3-9-8.8-18.2-19.1-28.8-27.8-6.2-5.1-14.4-8.4-22.2-10.4-3.7-.9-10.2,2.1-12.7,5.4-10.3,14.1-19.5,29-30,45,3.1-.2,5.4.4,6.5-.5,6.9-5.5,13.5-.8,20.4-.2-5.1,4-7.9,12.4-16.5,8.7l11.6-5.4c-8.5-4.9-13.3,1-18.3,4.5-6.9-3.5-13-7.8-21-6.9s-16.1,1.4-25.6,2.2c3.8,1.8,6.8,3.7,10.1,4.8a19.06,19.06,0,0,0,7.9.8c8-.9,12.3,3.3,14.9,10.1-4,1.6-5.4,5.3-5.6,9.2-.1,1.9,1.7,4,3.3,7.3-1.3,2.8-3.3,7.3-5.3,11.9-1.6,3.7,1.7,11.3,5.7,11.8a51.42,51.42,0,0,0,13-.1c1.6-.2,3-2.2,5.2-4.1l-6.3-1.4c6.6-2.3,12.7-4,18.4-6.6,9.3-4.4,16.2-11.2,18.4-21.7.7-3.2,1-6.6,2.2-9.9a116.89,116.89,0,0,0,3,12,8.08,8.08,0,0,0,4.1,4.6c4.4,1.7,9.2,2.7,14.9,4.3L407.6,89c10.1,12,23,20.4,37.5,26.8L437.2,135l.8.8c4.9-4,9.9-7.9,14.6-12.2,1.1-1,1.1-3.4,1.1-5.1.1-9.3,0-18.6,0-28.3l2,6,34.2-15-3-4.3.4-.4c7.8,5.6,15.4,11.5,23.4,16.8,4.6,3.1,9.8,5.3,14.9,7.7a41.1,41.1,0,0,0,9,2.9c14.2,2.6,25.2,9.6,31.5,22.9l1.2,2.6,1.4-1.1c-1.9-7.4-3.6-14.8-5.7-22.1-.4-1.5-2.1-2.9-3.5-3.9-9.7-7.1-19.4-14-28.7-21.9l11.8,5.9.8-.8c-5.7-8.7-11.4-17.4-17.2-25.9-.6-.9-2.2-1.3-3.5-1.5-7.5-1.5-15-3.5-22.6-4.1-4-.4-8.2,1.6-12.5,2.6l2.8-4.8Z" transform="translate(-6.91)"/><image class="cls-1" width="41" height="42" transform="translate(332.99 76.01) scale(0.95 0.95)" xlink:href="DE928E6C58677D95.png"/><path class="cls-2" d="M351,84.9a1.35,1.35,0,0,1,1.8-.6.1.1,0,0,1,.1.1l3.4,2a.78.78,0,0,1,.4.4,1.42,1.42,0,0,1-.3,1.9l-6,4.3a1.7,1.7,0,0,1-1.4.2,1.36,1.36,0,0,1-.7-1.8h0l2.7-6.3C350.9,85,350.9,84.9,351,84.9Z" transform="translate(-6.91)"/></svg>