<svg id="Layer_1" data-name="Layer 1" xmlns="http://www.w3.org/2000/svg" viewBox="0 0 745.34 347.12"><defs><style>.cls-1{fill:#725a26;}.cls-2{fill:#fff;}.cls-3{fill:#fefefc;}.cls-4{fill:#9f8134;}.cls-5{fill:#fdfbf6;}.cls-6{fill:#ecd182;}.cls-7{fill:#e6c462;}.cls-8{fill:#d7ad3e;}.cls-9{fill:#debc5d;}.cls-10{fill:#e2bf4d;}.cls-11{fill:#dcb745;}.cls-12{fill:#e8c86a;}.cls-13{fill:#c7a447;}.cls-14{fill:#f6eed5;}.cls-15{fill:#efd88c;}.cls-16{fill:#e6c975;}.cls-17{fill:#927631;}.cls-18{fill:#cdac4e;}.cls-19{fill:#f0db95;}.cls-20{fill:#856b2c;}.cls-21{fill:#ba983e;}.cls-22{fill:#b1913d;}.cls-23{fill:#eee3ae;}.cls-24{fill:#efe5c5;}.cls-25{fill:#d8b454;}.cls-26{fill:#b49d54;}.cls-27{fill:#faf6e3;}</style></defs><title>GoldMap</title><path class="cls-1" d="M15.64,180.66l-1.17-2.06q-.06-1.94-.11-3.87l3-.68,10.47,2.45,5.79,4.15c-4.4,3.05-8.85,3-13.62.4C18.91,180.49,17.1,180.77,15.64,180.66Z" transform="translate(-14.36 -139.08)"/><path class="cls-1" d="M759.36,412.72l-.55,2.15c-1.64,1-3.7,1.74-4.84,3-3.86,4.26-3.8,4.34-11.08,1.09,2.65-1.71,5.23-3.12,7.39-4.84,2.35-1.88,4.27-4.08,6.5-6.06.19-.17,1.33.29,2,.46q.07.65.9.55Z" transform="translate(-14.36 -139.08)"/><path class="cls-2" d="M254.86,254.34l3.71-1.34-4.25-7.46c-1.32.59-3.85,1.55-3.77,1.72C251.79,249.68,253.37,252,254.86,254.34Zm68.52-56.71,5.37-3.25c-1.93-.81-3.82-2.17-5.79-2.25-1.68-.07-3.46,1.35-5.2,2.11ZM476.48,394.21c1.78-1.55,3.54-2.52,3.35-3-.48-1.25-1.88-2.28-2.91-3.4-.9.82-2.43,1.6-2.54,2.48S475.42,392.35,476.48,394.21ZM329.65,361.31c1.39-1.88,2.78-3,2.49-3.52-.63-1.21-2.13-2.16-3.27-3.21-.81.77-2.42,1.64-2.27,2.27C326.88,358.11,328.14,359.24,329.65,361.31Zm305,40.67-.1-2.74-7.71,1.09.45,2.21ZM220.15,437.89c-2.35-1-3.7-2-5-1.94-.87,0-1.69,1.49-2.54,2.31,1.12.63,2.2,1.68,3.39,1.76C217,440.09,218.07,439,220.15,437.89Zm43-198.14c-2.48-.77-3.68-1.51-4.7-1.38a5.17,5.17,0,0,0-3,1.73c-.23.28,1.17,1.93,1.82,1.93C258.35,242,259.48,241.23,263.11,239.75ZM92.22,212.69c-1.12-.75-1.75-1.52-2.45-1.56s-1.47.66-2.21,1a7.73,7.73,0,0,0,2,1.84C89.93,214.16,91,213.33,92.22,212.69Zm105.1,95.13c-1.19-.67-1.92-1.4-2.62-1.38s-1.39.78-2.08,1.21a8.07,8.07,0,0,0,2.24,1.66C195.23,309.43,196.17,308.54,197.31,307.82Zm429.86,81.31-1.89.06.4,3.41,1.49-.06Zm-268.9-62c.58-.63,1.2-1,1.22-1.41s-.51-.92-.8-1.37c-.56.44-1.3.82-1.59,1.35C357,325.93,357.71,326.46,358.27,327.12Zm113.84,73.65-.55,1c.42.14.94.46,1.25.37s.39-.6.58-.93Zm-189-171.47c-.42-.14-.94-.47-1.25-.38s-.4.6-.58.93c.42.14.94.47,1.24.38S282.9,229.62,283.09,229.29Zm76.1-11.77-1.27-.43c-.18.33-.6.73-.48,1s.78.3,1.2.45Z" transform="translate(-14.36 -139.08)"/><path class="cls-3" d="M757.39,486l1.3-1,.19,1.17A13.22,13.22,0,0,1,757.39,486Z" transform="translate(-14.36 -139.08)"/><path class="cls-2" d="M414.76,153l3.29,2.33,2.69.15,4.76,2.26,4.12,0c5.67-.27,13.19,1.07,16.52-1.23,3.64-2.51,7.4-3.12,11.21-4.42,1.93-.66,3.84-1.35,5.92-2.09-5-5-5.17-5-13.93-1.46l-14.88-.29-2-2-2.52,2.21-10.43,0-7.52,1.37,2.85,3.17Zm131.65-8.15,2.72,1.53c.17.51.13,1.18.54,1.51,1.69,1.38,3.34,3.46,5.34,3.72,1.66.21,3.79-1.77,5.71-2.77-1.65-1.34-3-3.42-5-3.87a50.27,50.27,0,0,0-12.53-1.11c-2.08.07-4.06,1.76-6.09,2.72l4.64,5.64ZM115,164.62c-3.1-1.05-4.51-1.94-5.81-1.85-1.14.08-2.14,1.27-3.21,2,1.2.8,2.29,2.1,3.62,2.26C110.76,167.14,112.15,166,115,164.62Zm373.81-6.39v1.17H499l0-1.17Zm124.78-16.36q0,.58,0,1.16h7.23l0-1.16ZM430.78,160.66l.07,1.69,5.88-.31-.11-1.38Zm35,0,.08,1.69,5.88-.31-.11-1.38Zm65.43-21.12.13,1.58,4.44-.54-.18-1ZM94,159.51l-.22-1.32-4.28.31.27,1.43Zm385.41.07h1.4v-3.41h-1.4ZM138.23,144.34v1.08h4.42v-1.08ZM458.49,164c-.63-.52-1-1.08-1.47-1.16a5.72,5.72,0,0,0-1.89.38c.41.49.7,1.14,1.29,1.41C456.74,164.78,457.56,164.3,458.49,164Zm166.06-16.68c-.76-.47-1.22-1-1.72-1a5.71,5.71,0,0,0-1.85.54,6.23,6.23,0,0,0,1.66,1.3C622.94,148.28,623.67,147.73,624.54,147.32ZM491.38,166.38c.42.14.94.47,1.25.38s.4-.61.59-.93c-.42-.14-.94-.47-1.24-.38S491.57,166.05,491.38,166.38Zm-34.66-7.71c-.42-.14-.94-.47-1.24-.38s-.4.6-.58.93c.42.14.94.47,1.24.38S456.53,159,456.72,158.68ZM408,156.35c-.42-.14-.94-.46-1.25-.37s-.39.6-.57.93c.42.14.94.46,1.24.37S407.82,156.68,408,156.35Zm-245.08-12.2c-.18.33-.61.73-.49,1s.78.31,1.21.45c.19-.33.61-.73.49-1S163.35,144.29,162.92,144.15Z" transform="translate(-14.36 -139.08)"/><path class="cls-4" d="M757.2,190.49c-3.2.48-6.48.78-9.59,1.5-4.32,1-8.51,2.31-12.56,3.44,4.32,9.53-8.27,10.9-11.25,17.87-3.69-8-6.05-14.19,4.65-18.26,1.15-.44.51-3.7.7-5.66.19-1.76-.38-3.91.74-5.19,2.67-3.07,5.46-9.08,4.63-12,5.23.22,10.46.57,15.69.56,1.32,0,2.64-1.18,4-1.82,5,2.81,6.78,10.84,4,17.43Z" transform="translate(-14.36 -139.08)"/><path class="cls-3" d="M758.65,432,753,426.18c-3.29.75-15.14-2.77-16.29-5.78-.55-1.44,1.24-3.41,2-5.14,1.36-3.12,2.66-6.26,4.16-9.34.54-1.11,1.51-3,2.36-3,6.46-.18,8.83-3.61,10.83-7.48l2.76,13c-.7-.17-1.83-.63-2-.46-2.23,2-4.15,4.18-6.5,6.06-2.16,1.73-4.74,3.13-7.39,4.84,7.28,3.25,7.23,3.17,11.08-1.09,1.13-1.25,3.2-2,4.84-3Z" transform="translate(-14.36 -139.08)"/><path class="cls-3" d="M757.38,394.27l1.29-1Z" transform="translate(-14.36 -139.08)"/><path class="cls-3" d="M24.74,171.95l15.21,3.53,1.55,1.2q0,1.73,0,3.47l-5.31,4.71,6.21,3.8-.48.09-.4,2.43-1.09,1c1.84,5.15,5.43,6.19,11.71,3.39l1.54,0,1.47,4.44c-4.27,1.17-8.32,2.13-12.13,3.48-.62.22-.79,2.53-.1,3.3C44,208,46,208.72,47.59,209.61c.15,3.06-2,6-5.58,4.37-9.59-4.42-17.57.45-26.19,1.51q0-1.76,0-3.52L28,209.53l-.12-.87-12.1-1.41q0-10.59,0-21.17c3.72,0,7.45-.12,11.16,0,5.08.19,7.57-1.32,6.61-5.43l-5.79-4.15Zm6.81,19.39C30,190.22,29,189,28,189s-2,1.24-2.94,1.93c.86.71,1.62,1.87,2.61,2S29.8,192.09,31.55,191.33Zm10.33,8.43c.18-.33.6-.73.48-1s-.78-.3-1.2-.44c-.18.33-.6.73-.48,1S41.46,199.63,41.88,199.77Z" transform="translate(-14.36 -139.08)"/><path class="cls-5" d="M33.58,180.66c1,4.11-1.52,5.62-6.61,5.43-3.71-.14-7.44,0-11.16,0q-.09-2.71-.17-5.41c1.46.11,3.27-.17,4.32.39C24.73,183.62,29.18,183.71,33.58,180.66Z" transform="translate(-14.36 -139.08)"/><path class="cls-5" d="M15.82,207.25l12.1,1.41.12.87L15.82,212Q15.82,209.61,15.82,207.25Z" transform="translate(-14.36 -139.08)"/><path class="cls-5" d="M24.74,171.95l3,4.56-10.47-2.45-1.48-2.12Z" transform="translate(-14.36 -139.08)"/><path class="cls-6" d="M356.63,276.7l.13-3.54a1.06,1.06,0,0,0,.12-1l2.91-3.72,0,0c2.3-2.61,4-5.88,7-7.68,4.13-2.39,5.62-5.07,5.3-8.74l3-3.17,2.07-1.45,1-1.12c2.45-3.05.7-3.95-3.21-3.73a1.39,1.39,0,0,0-1-.16l-2-3.43,0,0q0-1.13,0-2.27c.41-.48,1.23-1,1.17-1.43-.88-6.6,2-9.45,11-7.21,1.46.36,5.1-.94,5.29-1.79a6.51,6.51,0,0,0-1.5-5.77c-1.29-1.24-4.42-1.33-6.74-1.94l0-.53,5.84-1.41,6.22-2.23.07,0,12.09-4.75c11.3,0,12.25.6,10.16,7,3.4-.13,6.62-.14,9.8-.41,6.5-.55,13-1.86,19.45-1.73,9,.18,17.92,1.52,26.91,2.06a18.22,18.22,0,0,0,7-1.38c8.56-3.16,11.18-9.81,15-15.73,1.45-2.23,2.08-5.51,4.41-6.54,11.58-5.16,19-14.69,32.27-18l5-1.23-1.87-1.81c.45-5.74,4.37-8.35,10.46-6.95-3.11,4.22-.78,7,5.41,9.58-3.47,3.8-7.83,7-9.53,10.86s-5,5.66-9,7.91c-8.23,4.73-19.1,7.61-22.89,15.85-2,4.33-4,7.77-12.19,8.15l7,3L490.84,226l-3.08,2.46h0l-3.56-6.74-2.09.66-1,7.69-25.91,2.46L453,228.75l-5.15,7.14-7.64,7.25-4.52-5.22c-2-3-3.39-6.37-6.16-8.85-2.61-2.34-6.65-3.71-10.06-5.51L417,225.9l14.54,8.79-7.68.69c-2.45-1.64-5.68-2.94-7.19-5-3.08-4.19-7.13-3.88-12-2.8-10.25,2.28-13.26,8.53-15.34,15.85l10.08-.79,1.18,1.79,1.84-1.83,6.15-.32c-.28,3.45,1.19,7.53-5.13,9l-2.67-4.11c-3.36,7.54-6.4,4.77-9.25.22l-2.67,4.53-5.4-5.27c-2.79,4-11.71,4.93-6.59,11.38.51.65-.57,2.25-1.3,3.24-1.61,2.2-3.46,4.28-5.3,6.51l-2.88-3.34-5.68,8c3.89,2.47,6.19,5.34,1.59,9-.81.66-.35,2.26-.48,3.42l-.09,4.67-5.86.07-.44-1.19.42-3.34,0-5.16Z" transform="translate(-14.36 -139.08)"/><path class="cls-7" d="M186.19,287.35l-2.29-.28-3.77-2.16h0l-2.94-1.36.11.1-1.76-1.1a1,1,0,0,0-.86-.16L171.06,280l-.44-2.23-2.52-6.21a5.58,5.58,0,0,0,.13-.86L185,267.06c-3-5-1.33-7.09,7-8.08-5.07,5.84-3.75,12.24-2.26,18.51.29,1.22,3.06,2.91,4.71,2.93a15.75,15.75,0,0,0,6.93-2.14,73.27,73.27,0,0,0,7.25-4.87l2.15,1L207.57,287c2.32,0,3.84-.12,5.31,0s3.17.58,5,.94c-.34,1.42-.61,2.35-.78,3.29-1.29,7.08.94,9.28,10,9.21a14.71,14.71,0,0,0,6.58-1.83c4.24-2.36,7.87-5.22,13.81-2.37,2.89,1.39,6.6,1.77,9.93,2.61,1,1.67,3.16,4.63,2.84,4.8a56.69,56.69,0,0,1-7.66,3.06l12.23,12.85-2.49.56-3.79,4.7c2.29.43,4.64.74,6.86,1.34,2,.53,5.38,1.28,5.45,2.09.48,5.3,4.6,4.36,9,3.82,1.88-.23,3.93.5,5.92.65,9.22.68,18.31.65,26.69-3.08,8.94,4.7,9.54,6.22,4.72,11.81l-.22-1.32c-6.51,1.24-12.74,2.41-19,3.61-7.4,1.43-15.08,2.34-22.12,4.49-9.3,2.83-18.07,4-27.21,0-5.91-2.62-13.13.13-13.93,5.13l-2.68-.38,0,.11L228.94,346a1.62,1.62,0,0,0-.31-1l-1.1-1.37.14.1L226,341l-1.48-4.36c-5.85-5.12-.37-10.89-1.58-16.28h-.07l3.27-4.61-.07,0c6.36-3.82,2.35-8,1.82-12.49l-6.79,2.53-4.26-2.11-3.1-2.44,0,0-3-3.91q.23-.43-.27-.68l-2.86-2.49v0L201.42,292a1,1,0,0,0-1-.23l-4.9-3.91-3.26-.36-3.07.17ZM185.37,271l-7.72,6.31C185,278.85,187.5,277,185.37,271Zm-8.9.66c-.43-.14-.94-.47-1.25-.38s-.4.61-.59.93c.42.14.94.47,1.25.38S176.29,272,176.47,271.66Z" transform="translate(-14.36 -139.08)"/><path class="cls-8" d="M430.09,392.82l-.21-2c-.6-2.29-1.09-4.61-1.81-6.88-1.39-4.39-2.91-8.76-4.38-13.14,4,2.79,6.73-1.91,10.24-1.12,8.32,1.88,10.47-1,8.85-6.59,10-4.5,14.71-11.34,12.87-17.24-.44-1.41,1.17-3.2,2.19-5.67.31-1.77,1-4.5,1.2-7.25a29.65,29.65,0,0,0-.46-5.79c-.13-1.08-.76-2.2-.54-3.22,1.09-5.07,13.51-14.32,20.58-15.49h8.2l-2.49-7.38L496.84,306c-1.57,2.58-2.72,5.38-4.8,7.69-4.21,4.67-8.91,9.07-13.41,13.58v0c-.47,4.83-2.41,9.93-1.07,14.44,2.23,7.52,1.63,12.09-5.71,17.43-3.56,2.59-6.75,5.18-4.3,9.57.68,1.21.06,3.13-.7,4.48-2,3.56-4.4,7-6.65,10.47h0L457,388.3l.07,0L451,392.83c-2.93.43-5.85.93-8.8,1.27C438,394.57,433.52,396.59,430.09,392.82Z" transform="translate(-14.36 -139.08)"/><path class="cls-3" d="M257.44,298.89c-3.34-.84-7-1.22-9.93-2.61-5.95-2.85-9.57,0-13.81,2.37a14.71,14.71,0,0,1-6.58,1.83c-9,.07-11.29-2.13-10-9.21.17-.94.44-1.87.78-3.29-1.85-.36-3.41-.77-5-.94s-3,0-5.31,0l3.2-12.55-2.15-1a73.27,73.27,0,0,1-7.25,4.87,15.75,15.75,0,0,1-6.93,2.14c-1.65,0-4.42-1.71-4.71-2.93-1.48-6.27-2.81-12.67,2.26-18.51,3.89,0,8,.54,11.63-.22,13.16-2.72,13.11-2.89,16,6.22,1.09,1.17,2.17,2.34,3.28,3.5.88.91,1.8,1.8,2.7,2.7-4.24.14-9.75-2.29-11.62,2.22l15.18,5.34c-5.56,3.13.5,5.21,1.72,7.94l2.47-6.29c2.22,3.6,2.22,3.6,4.62,2.29h15l.05-1-12-3.86-3-2.46L224.41,260.2c-3.78-4.39-1.71-7.68,2.75-11,3-2.27,5.11-5.3,7.61-8,1.4.56,2.77,1.17,4.21,1.66,2.07.71,4.18,1.33,6.27,2a44.11,44.11,0,0,1-3.91,4.52c-3,2.67-7,4.84-9,7.85-1.72,2.66-1.57,5.85,3,8.32,7.08,3.82,12.93,9.35,24.53,6l-3.2,8.41c8.37-2.7,11.86,1,14.93,6,1.16,1.89,4.57,2.89,6.56,4.57a30.21,30.21,0,0,1,5.27,5.8c.3.44-1.83,2.53-2.07,2.45a67.3,67.3,0,0,1-7.58-3.1,41.35,41.35,0,0,1-3.88-2.34l-1.88,1.36c4.62,3.85,9.27,7.68,13.81,11.59a7.28,7.28,0,0,1,1.31,2.43c-8.74.73-14.33-2.93-18-8.37C263,297.19,260.7,297.28,257.44,298.89Z" transform="translate(-14.36 -139.08)"/><path class="cls-9" d="M219.66,265c-2.93-9.11-2.87-8.94-16-6.22-3.64.75-7.74.18-11.63.22-8.31,1-10,3.09-7,8.08l-16.77,3.67-.61.17-5.88-7.06v-6.12c-7.79-1.78-12.81-5-15.25-10.39,4.29-4.72,11.69-6.79,18.9-5.19,4.43,1,6.21-.25,7.34-3.73,2.06-6.35,6.53-8,14.15-5.49,5.23,1.7,9.86,2.84,15.78.77,3.7-1.29,8.77-.24,13.3-.24l1,4.8c3.4,0,7.77-.73,8.38.12,3,4.23,6.05,1.75,9.22.64l.44,1.19a.79.79,0,0,0-.25,1c-2.5,2.69-4.58,5.72-7.61,8-4.46,3.35-6.53,6.65-2.75,11C224.39,266.37,224.39,266.37,219.66,265Z" transform="translate(-14.36 -139.08)"/><path class="cls-10" d="M411.68,326l-.34-2.22.5-1.17c10.73-2.92,3-9,3.16-14.53l7.85,2,43.65-23.63,9.09.82h0l2.34,2.12a.64.64,0,0,1,.66.31l-1.49,5.83c-3.37,2.64-6.82,5.22-10.08,7.93-2.85,2.37-5.48,4.9-8.21,7.36-4.54,6-9,12-13.68,18a78.07,78.07,0,0,1-7.82,8.68c-4.56,4.28-9.4,8.4-14.33,12.43-.81.67-2.67.58-4,.83,2.74-5.61,3.53-11.13-1.23-16.41l-.38-2.33Z" transform="translate(-14.36 -139.08)"/><path class="cls-3" d="M307.71,366.89c-.4,7.7-.41,15.44-1.5,23.09-.26,1.84-4.16,3.37-6.38,5l-2.05-1.11,1,8.46-12.27-5.14-5,10.45c.64,1.54,2.07,3.69,2.3,5.91.21,2.06,0,5.15-1.59,6.09a15.34,15.34,0,0,1-9.14,1.23c-5.6-1-10.31.88-11.3,4.6l23.07,5.66-8.81,4.21,7,3.34-.25,1.3-26.43-1.2.52-.3-.37-.42-1.9-.18c-8.43-5.63-8.43-5.63-.5-15.21-.81-1.54-2.4-3.48-1.93-3.84,6.55-5,7.57-13.76,17.93-16.22l4.5-6.19.75.55,8.41-8.19,2.21-1.57,6-13Z" transform="translate(-14.36 -139.08)"/><path class="cls-3" d="M288.47,190.26c-4.59,4.06-5.22,8.37-3.91,13.79.79,3.24-2.67,7.1-4.21,10.68-3.91-.09-5.87-1-5.13-4.63.32-1.59-2.34-3.54-3.64-5.33l-3.27-1.94-9.06-9.63.12-11.6,3.34-3.17c-6.63-3.52-12.35-6.89-18.5-9.71-3.75-1.72-8.15-2.59-12.26-3.85l-6.12-2.2-.82-1.79.71-3.1,9.25-4.66,5.12,2c7.78,4.44,16.73,2.4,25.25,2.74,10.47,2.25,8.72,11.76,13.88,15,.62,3.36.38,5.78,1.56,7.66C282.9,184,285.86,187,288.47,190.26Z" transform="translate(-14.36 -139.08)"/><path class="cls-3" d="M478.63,327.29c4.5-4.51,9.21-8.91,13.41-13.58,2.08-2.31,3.23-5.11,4.8-7.69l4.9-10.25c-5.38.65-8.8,1.44-12.17,1.32-1.67-.06-3.24-1.77-4.86-2.74,2.81-.78,5.83-1.29,8.4-2.41,9-3.92,18.35-7.62,23.64-15.11,1.92-2.72,2.88-4.86-1.64-6.78-1.17-.5-1-2.85-1.49-4.34,3.33.7,7,2.41,9.93,1.88,5.6-1,9.53,0,12.91,3.25,1.72,2,3.32,4.13,5.23,6.05.94.94,3.3,1.38,3.6,2.32,1.66,5.22,2.89,10.53,4.27,15.8l-.91.53c-2.53,2.78-5,5.59-7.61,8.35-1.39,1.49-2.93,2.9-4.4,4.35-.62-1.56-2-3.2-1.71-4.66.85-4.7,2.31-9.34,3.9-15.42l-10.33,3.27c-9.86-5-11.36-4.6-15.18,4.24a8.34,8.34,0,0,1-3,4c-4.33,2.57-5.89,5.57-6.26,9.89-.23,2.64-4.5,5.08-6.78,7.42a57.87,57.87,0,0,1,3.63,6c.14.29-2.41,1.74-2.55,1.64-1.65-1.14-3.08-2.47-6.37-5.3l.75,8Z" transform="translate(-14.36 -139.08)"/><path class="cls-7" d="M288.47,190.26c-2.61-3.22-5.57-6.31-7.69-9.71-1.18-1.89-.94-4.3-1.56-7.66-5.16-3.22-3.41-12.72-13.88-15,2.33-5.43-2.77-10.51-10.68-10.65l-1.56-.14.33-2.3,5.87-1.14,4.23.13,13,0h3.53l5.4-.06,7.37-.22a2.58,2.58,0,0,0-.25.57L281,147.69c4.11,4.16,7.71,8.29,11.94,12,9.68,8.46,18.93,17.81,36.48,14.67L321,178.83a.73.73,0,0,0-.83.19l-9.14,2.3-6.5,7-2.8,4.5-5.67,0L291.34,191Z" transform="translate(-14.36 -139.08)"/><path class="cls-11" d="M307.71,366.89l-15.65,7.38L283.2,377c4.37,2.95,7.06,5.13.46,6.76h0c-1.19-1.15-3.1-3.41-3.45-3.28a105.06,105.06,0,0,0-9.78,4.79l-10.72-.76-2.58-3.94-1.65,9.6L254,390l-1.79-5.59-1.31.11L249.31,393c-8.3-3.75-4.15-9.42-5.3-14l.16-2.22,12.6-10.85c3.46-.62,9.42-1.42,15.15-2.79,9.73-2.32,19.39-4.83,28.9-7.63,3.13-.92,5.69-3,8.51-4.57L308.23,365Z" transform="translate(-14.36 -139.08)"/><path class="cls-3" d="M460.19,383.7c2.24-3.48,4.65-6.91,6.65-10.47.76-1.35,1.38-3.27.7-4.48-2.46-4.39.74-7,4.3-9.57,7.33-5.34,7.94-9.91,5.71-17.43-1.34-4.51.6-9.61,1.07-14.44a51.09,51.09,0,0,1,0,6.42c-.58,4.64,1.44,6.78,8,6.64,4.86-.1,9.58,1.17,10,6-3.56,6.54-14.7,10.24-11.87,19.19,1,3.29,1,9.27,2.65,9.53,6.92,1.1,5.55-4.44,7.38-7.46a38.32,38.32,0,0,1,3.48,4.29c1.32,2.2,3.79,4.87,3.07,6.7-1.17,2.94-3.84,6-9.64,4.42-4-1.12-11,4.09-11.2-4-7.49,1.7-8.68,5.8-9.41,10.07-.27,1.54.67,3.65-.34,4.57-2.17,2-5.52,4.87-7.92,4.62-4.76-.49-3.13-3.86-2.27-6.58S467,386.2,460.19,383.7Z" transform="translate(-14.36 -139.08)"/><path class="cls-12" d="M257.44,298.89c3.26-1.61,5.53-1.7,7.7,1.5,3.7,5.44,9.29,9.1,18,8.37l.16-.08c1.87,12,12.58,16.49,26.22,18.51a2,2,0,0,0,1.22.21l1.73,2.28c-8.37,3.73-17.47,3.76-26.69,3.08-2-.15-4-.88-5.92-.65-4.43.54-8.55,1.48-9-3.82-.07-.8-3.48-1.56-5.45-2.09-2.22-.59-4.57-.9-6.86-1.34l3.79-4.7,2.49-.56-12.23-12.85a56.69,56.69,0,0,0,7.66-3.06C260.6,303.52,258.45,300.56,257.44,298.89Z" transform="translate(-14.36 -139.08)"/><path class="cls-3" d="M716.33,374.28c1.29,1.51,3.58,3,3.7,4.53.54,6.92.37,13.87.63,20.81.16,4.29,1.51,8.93-6.9,9.43-.39,0-.81.46-1.06.78a5.85,5.85,0,0,0-.53,1.48l11.06.9-4.1,2.79,2.32,6.26c-2.54-.32-5.09-.59-7.6-1a33.59,33.59,0,0,1-5.65-1.21c-3-1-5.89-2.25-8.71-3.53-1-.47-1.6-1.73-2.64-2-8.33-1.85-12.76-5.77-12.32-12.71,0-.74-1.4-1.53-2.15-2.3a2,2,0,0,1,.4-.74l3,0c1.26,6.65,8.57,6.18,14.25,6.45,2.89.14,7.67-1.82,8.73-3.76,4.5-8.25,10.24-16.47,7.24-26Z" transform="translate(-14.36 -139.08)"/><path class="cls-3" d="M384.19,183.72l5.67,2c0-1.07.29-1.89,0-2.49-1.79-3.12-1.39-6,3-7,.92-.21,3.3,3.61,5.12,5.51,1.42,1.49,3,2.89,4.52,4.33l.17,1.43q0,3.36-.05,6.72c-9.18,4.39-4.14-4.28-7.66-5.16-3.62,7.71-1.89,9,11.09,8.63l2.75,4.82-3.21,1.22c-.94,0-2.44-.17-2.73.19a47.77,47.77,0,0,0-3.22,5l-1.54,1-1.42-1.41a6.37,6.37,0,0,1-.27-1.13l0-2.43,2.73-2.51-1.94-.53-.79,3-3.11,0h0l.05-2.4c3.4-3.64-.29-3.38-3.25-3.54a1,1,0,0,1,0-.83c.06-1.34.53-2.77.06-4s-1.87-2.19-2.86-3.27l-2.94,3.7-7.5,4.3-1.59,2.86L372,204.9h-3c-.42-3.1,1.82-7.74-6.36-6.4-.55.09-1.67-1.9-2.52-2.92a25.23,25.23,0,0,1,4.48-1.56c1.85-.3,5.19.27,5.47-.28.75-1.47,0-3.34.23-5,.45-3.25,1.16-6.47,1.76-9.71l3-2.36,9.14,2.35-7.2,4.25Zm-3.77,8.74-.26-1.45-6.41.78c2.78.84,3.44,1.21,4.1,1.2A13.52,13.52,0,0,0,380.42,192.46Z" transform="translate(-14.36 -139.08)"/><path class="cls-13" d="M270.16,402.67c-10.36,2.46-11.38,11.18-17.93,16.22-.46.36,1.12,2.3,1.93,3.84-7.93,9.58-7.93,9.58.5,15.21l-9.73,2.14-3.92-2a.66.66,0,0,0-.79-.34c-5.66-4-7.48-8.82-6.11-14.67,1.22-5.22,1.74-10.54,2.57-15.81l.17-2.83,3.92-8.11c0,8.19,0,16.38,0,25.69,2.4-2,3.33-3.58,4.54-3.73,4.49-.54,6-2,7.34-5.7C255.91,403.86,259.31,402.56,270.16,402.67Z" transform="translate(-14.36 -139.08)"/><path class="cls-3" d="M423.77,385l-8.92-2.67c2,4.08,3.52,6.77,4.67,9.54a12.94,12.94,0,0,1,1.3,5.76c0,.46-4.21,1.54-5.21,1-2.2-1.23-4.55-3.17-5.11-5.11-.89-3.1-.36-6.44-.44-9.67l-1.52-2.36,1.95-4.82c-8.6-4.44-8.8-6.41-1.14-10.47l-.81-8.25c1-.69,2.91-1.59,2.74-2-.38-1-1.77-1.8-2.74-2.68v-9.42q0-1.76,0-3.53h6.09l-2,5.16,1.75-.48,3.47,6.08-.39,2.18c-4.34,1.46-4.31,3-.2,4.71l.55,3.36-2.19,5.23c1.93,1.66,4.4,2.85,4.91,4.41C422,375.51,422.74,380.27,423.77,385Z" transform="translate(-14.36 -139.08)"/><path class="cls-3" d="M320.22,179a.74.74,0,0,1,.83-.19l11.35-4.14,3.23-2.61,4,2.11,4.92-2.1a28,28,0,0,0,2.89-2.91c1.62-2.19,3-4.46,4.54-6.7l3.23.07q0,1.17,0,2.34l1.52,4.71q0,3.53,0,7.06l-6.09,2.23-9,.18-2.94,3.09,5.79,1.58h0L339.25,190l1.7,1.41,8.56-5.5,4.22.15q0,1.2,0,2.4l-3,5.88-6.09-1.18h-9.14l-3-4.71-1.17-1.84-1.88,1.84-7.62-2.35Zm11.63.87c-.43-.14-.94-.46-1.25-.37s-.39.6-.58.93c.42.14.94.46,1.25.37S331.67,180.21,331.85,179.88Z" transform="translate(-14.36 -139.08)"/><path class="cls-3" d="M312.51,329.67l-1.73-2.28h20.44c-.42,4.26.45,8.44-1.53,11.54-1.71,2.7-6.63,4.19-10,6.13,8.35,2.56,7.75,2.39,3.59,9.66-1.41,2.47,1.12,6.28,1.65,8.64L308.23,365l1.1-14.06,1.76-2.43,1.94-1.24,4.2-5.74C322.05,335.89,321.44,334.38,312.51,329.67Z" transform="translate(-14.36 -139.08)"/><path class="cls-3" d="M381.33,218.06l0,.53-.69,7-7.46.86c-1.2,2.43-2.63,4.5-3.12,6.69-.24,1.07,1.3,2.37,2,3.56q0,1.13,0,2.27l-6.8-2.83-5.48,1.7H358.3v-4.71l4.57-1.18,7.87-5.24-3.09-.31-4.78-13.28-3-3.53c.74-3.72,1.41-3.89,9.12-2.36l1.82,1.27,5.31,3.27Z" transform="translate(-14.36 -139.08)"/><path class="cls-3" d="M216.85,303.7l4.26,2.11,5,10,.07,0-3.26,4.61h.07l-3.27,2.24-4.06,2.63,4,2.07,0,2.37c-6.21,3.63-9.85-2.6-15.18-2.36.92-2,3-4.12,2.43-5.79-.47-1.47-4-3.49-5.9-3.36-6.94.49-1.59,4.5-2.63,6.8-6.17-.77-5.41-4.59-4-7.19,1.9-3.42,6.29-4.33,10.82-2.47,6.7,2.75,8.71.51,8.38-4.47l-1.52-4.71,1.52-2.35h0Zm1.71,11.41c.18-.33.6-.73.48-1s-.78-.3-1.2-.44c-.18.33-.6.73-.48,1S218.13,315,218.56,315.1Zm-6.9,5.63-.55,1c.42.14.94.46,1.25.37s.39-.6.57-.93Z" transform="translate(-14.36 -139.08)"/><path class="cls-3" d="M633,365.47l3.89-.58.38.3-.58,1.58c-7.35,2.86-5,7.74-4.2,12.26s1.5,9.32,3.13,13.78c.52,1.44,4.06,3.36,5.89,3.16,4.51-.47,8.83-2,13.23-3.17l.6.47c1,1,2.66,2,2.85,3.11.26,1.52-.19,4.37-1,4.54-5.07,1-10.42,3.62-15.31-.82-1.42-1.29-4.67-1.3-6.46-2.47s-4.3-3.89-3.8-4.43c5.68-6.09-1.79-6-5-7.55-.77-3.68-1.24-7.24-2.31-10.69-1.69-5.46,2.08-9.57,9.09-9.49Z" transform="translate(-14.36 -139.08)"/><path class="cls-3" d="M309.56,327.19c-13.64-2-24.35-6.53-26.22-18.51l20.53.56Z" transform="translate(-14.36 -139.08)"/><path class="cls-13" d="M494.75,367.67c-1.83,3-.46,8.56-7.38,7.46-1.65-.26-1.61-6.24-2.65-9.53-2.83-8.94,8.31-12.65,11.87-19.19l0-.11,3,1.87.17,3.84-2.9,10.59-.77,2.2-1,2.5Z" transform="translate(-14.36 -139.08)"/><path class="cls-3" d="M168.24,270.73a5.58,5.58,0,0,1-.13.86l2.52,6.21.44,2.23-.1,2.54h0c-1,.69-2.91,1.59-2.74,2,.39,1,1.77,1.8,2.75,2.68h0v1.18c-5.08,2.1-7.63.95-7.61-3.53l-1.52-4.72c-6.63-2.43-10.6-7.87-19.06-8.61-6.16-.54-3.74-4.8-2.26-7.87q7.11.78,6.09-4.71h3.16l.1,3.09c-1,3.86,2.12,4.16,5.78,4l.22,2.11c1.15,2.39,1.43,5.87,3.64,6.93,4.49,2.15,4.78-2.19,6.75-3.93.27-.24.91-.22,1.38-.32Z" transform="translate(-14.36 -139.08)"/><path class="cls-3" d="M128.3,224.91c-2.52,0-5.27.49-7.49-.14s-4.93-2.08-6-3.72c-2.51-3.78-1.76-9.2-10-9.72-1.41-.09-3.27-2.81-3.61-4.47-.61-2.94-.23-6-.26-9l14.9,13.05,3.37-1.28,3.19,2.38a1.09,1.09,0,0,1,0,.93l-2.23,9.92,7.33-3,3.72,1.49,1.68,1.3a5.89,5.89,0,0,0,.18,1Z" transform="translate(-14.36 -139.08)"/><path class="cls-3" d="M235,240.21l-.44-1.19c4-3.88,7.86-7.91,12.23-11.54,1.29-1.07,4.09-1.22,6.25-1.45a50.9,50.9,0,0,1,6.21.06l6.11-2.34h3.06L270,226c-1.39,4.33-3,8.27-10.73,7.29-1.35-.17-3,1.69-4.69,2.37-2.09.85-4.8,2.42-6.46,2C242.7,236.21,239,238.21,235,240.21Z" transform="translate(-14.36 -139.08)"/><path class="cls-3" d="M224.52,336.63,226,341l1.67,2.66-.14-.1,1.1,1.37a1.62,1.62,0,0,1,.31,1l3.21,7.14,0-.11-.29,1.38c-2.71,0-5.44.05-8.13-.17-.41,0-.64-1.43-1-2.19l2.93-4.15-2.94-.56-8.48,3.42.69,2.67a32.43,32.43,0,0,1-2.34-5.51c-.52-2.33-.28-4.76-.75-7.1a29.84,29.84,0,0,0-2-5c2.52-.17,5-.38,7.57-.5a12.45,12.45,0,0,1,2.22.29Zm-7,2.55-2.15.95,2.61,3.36,1.7-.67Z" transform="translate(-14.36 -139.08)"/><path class="cls-3" d="M394.85,317.88c-1,5.21-3.8,9.22-11.2,10.13a7.21,7.21,0,0,1-2.5-.72v-2.35l6.09-5.88c5.48-1.19,2.37-3.71,1.52-5.87l7.62-4.58,3-.09c1.92,1.54,3.81,3.11,5.77,4.61s4.29,3.18,6.44,4.77h0c-7.83-1.37-8,3.26-9.16,7-4.47,0-4.37.06-3.64-2.63a31.19,31.19,0,0,0,.59-4.44l-2-3.12Z" transform="translate(-14.36 -139.08)"/><path class="cls-3" d="M234.92,437.93l-12,2.31c-.66-3.13-.66-6.46-2.12-9.34-3.45-6.79,2.21-9.81,8-13,1,3.43,2,6.87,3,10.3C232.86,431.46,233.91,434.7,234.92,437.93ZM225.21,427c-.42-.14-.94-.47-1.24-.38s-.4.6-.58.93c.42.14.94.47,1.24.38S225,427.35,225.21,427Z" transform="translate(-14.36 -139.08)"/><path class="cls-3" d="M122.22,249.62l-.74-8.93-1.6-.86c-3.51,4.18-6.12,4.32-8,.08l7.3-4.41,1.52-2.36c-.44-4.43,3.21-4.92,7.59-4.71q0,4.71,0,9.42l-3.18,4.73,3.18.47v-5.21l5.82,2.36a.91.91,0,0,1,.35,1l-.15,2.49c-1.79,1.49-3.54,3-5.38,4.46-1.16.92-2.45,1.73-3.69,2.59Z" transform="translate(-14.36 -139.08)"/><path class="cls-3" d="M495.09,367.31l1-2.5c4.51-1.76,9.44-3.09,13.43-5.39,3.83-2.21,6.29-1.55,9.16.62s3.63,4.17-.41,6.12a15.58,15.58,0,0,0-3.17,2.42c-4.65,3.94-9.23,4.18-14.42,1A34.63,34.63,0,0,0,495.09,367.31Z" transform="translate(-14.36 -139.08)"/><path class="cls-14" d="M268.45,223.72h-3c.63-6-5.45-.2-7.73-2.59-1.82-1.91.59-7.13-6.27-5.63l4.75-2.19c6,2.55,10.31-1.21,15.27-2.53l-2.78,7.58,12.2,2.28v-4c4.85,1.88,3,4.5,1.3,7.1l-6-.1c-2.66-3.51-5.24-3.74-7.71.12Z" transform="translate(-14.36 -139.08)"/><path class="cls-3" d="M387.23,319.06l-20.63,6.88c.18-3-4.36-7.64,4.37-10.16,1.11-.32,1.71-1.7,2.55-2.59h13.71Q387.24,316.12,387.23,319.06Zm-3.68-2.68-1.27-.42c-.18.33-.6.73-.48,1s.78.3,1.2.44Z" transform="translate(-14.36 -139.08)"/><path class="cls-3" d="M234.92,363.79l-8.31,1.13,6.78-7,10.66,4.7-.18,7.06c-1,1.73-2,3.43-2.85,5.19-1.08,2.18-2,4.39-3.06,6.59L236.45,365l.73-1.75Z" transform="translate(-14.36 -139.08)"/><path class="cls-3" d="M682.08,398.68,675.16,402c-7.35-6.38-7.35-6.38-5.69-9.72l-14.11,1-.6-.47,2.14-1.92a15.39,15.39,0,0,0,3.74-.36c7.56-2.8,13.48-2.12,17.3,4.28.37.62,2.52.61,3.85.89Z" transform="translate(-14.36 -139.08)"/><path class="cls-5" d="M372.16,252c.31,3.67-1.18,6.34-5.3,8.74-3.09,1.79-4.75,5.07-7,7.68l-4.28-9.13,7.33-6.15,1.53-1.19Z" transform="translate(-14.36 -139.08)"/><path class="cls-3" d="M362.85,253.15l-7.33,6.15,4.28,9.13,0,0-2.91,3.72a1.06,1.06,0,0,1-.12,1c-6.67-4.86-6.67-18.39,0-21.19h3.06Z" transform="translate(-14.36 -139.08)"/><path class="cls-5" d="M47.59,209.61c-1.6-.9-3.6-1.58-4.67-2.76-.69-.77-.52-3.08.1-3.3,3.81-1.35,7.86-2.31,12.13-3.48l-1.47-4.44,2.79-.53,4,.74-1.48.75,2.28,2.66,0,2.13-7.64,4.7-3,3.53Z" transform="translate(-14.36 -139.08)"/><path class="cls-15" d="M353.73,186l-4.22-.15-4.94-2.15h0l-2.85-4.67,9-.18,12,.39,1.46,1q0,1.11,0,2.23l-1.41,1.1-6.21,2.38,0,0Z" transform="translate(-14.36 -139.08)"/><path class="cls-5" d="M423.77,385c-1-4.7-1.76-9.46-3.26-14.07-.51-1.57-3-2.75-4.91-4.41l2.19-5.23,5.9,9.58c1.47,4.38,3,8.75,4.38,13.14.72,2.27,1.21,4.58,1.81,6.88Z" transform="translate(-14.36 -139.08)"/><path class="cls-3" d="M210.5,296.7c.33.17.42.4.27.69l3,3.91,0,0q-.07,1.25-.15,2.5h0l-9.14-2.36-2.7-3.32-.35,3.32c-6.68,2-3.46-3.6-6.09-4.71l5.12-5a1,1,0,0,1,1,.23l6.22,2.27v0Z" transform="translate(-14.36 -139.08)"/><path class="cls-3" d="M61.32,201.38l0-2.13h1.51L76.53,199c1,1.72,2.73,3.45,2.7,5.16s-1.81,3.47-2.82,5.21a45.56,45.56,0,0,0-4.68-3.11C68.34,204.55,64.8,203,61.32,201.38Z" transform="translate(-14.36 -139.08)"/><path class="cls-9" d="M280.84,216.62c0,1.27,0,2.54,0,4l-12.2-2.28,2.78-7.58q.08-3,.16-6c1.31,1.79,4,3.73,3.64,5.32-.73,3.66,1.23,4.54,5.13,4.63Z" transform="translate(-14.36 -139.08)"/><path class="cls-5" d="M234.92,437.93c-1-3.24-2.06-6.47-3-9.71-1-3.43-2-6.87-3-10.3v-1.18l7.84-9.46c-.83,5.27-1.35,10.59-2.57,15.81-1.37,5.85.45,10.68,6.11,14.67Z" transform="translate(-14.36 -139.08)"/><path class="cls-3" d="M370.49,310.84c-1.25.57-2.56,1.09-3.75,1.73-2.14,1.16-4.21,2.41-6.31,3.62-.71-1.35-2-2.7-2-4,0-2.82-1.75-6.56,4.43-7.21l3,1.24Z" transform="translate(-14.36 -139.08)"/><path class="cls-5" d="M119.17,209.61l-3.37,1.28-14.9-13.05-6.09-2.35q0-1.15,0-2.31l3.08-.09,17.39,12.64,3.92,1.52,1.07,1.49Z" transform="translate(-14.36 -139.08)"/><path class="cls-5" d="M417.83,351l-3.47-6.08-1.75.48,2-5.16q0-1.77,0-3.53l3.07-2.37c4.76,5.27,4,10.8,1.23,16.41A6.66,6.66,0,0,0,417.83,351Z" transform="translate(-14.36 -139.08)"/><path class="cls-5" d="M430.09,392.82c3.43,3.78,7.92,1.76,12.09,1.28,2.95-.34,5.86-.84,8.8-1.27l.24,2.74-4.58,2.35c-6.11-3.8-8-3.39-10.66,2.35C427.44,400.88,430.31,396.12,430.09,392.82Z" transform="translate(-14.36 -139.08)"/><path class="cls-5" d="M198.37,324.95c1-2.29-4.31-6.31,2.63-6.8,1.93-.14,5.42,1.88,5.9,3.36.54,1.67-1.51,3.84-2.43,5.79Z" transform="translate(-14.36 -139.08)"/><path class="cls-3" d="M304.58,188.34l6.5-7,6.09,4.75-7.62,7.06Z" transform="translate(-14.36 -139.08)"/><path class="cls-5" d="M128.31,237.85q0-4.71,0-9.42,0-1.76,0-3.53l4.7-1.2,1.6,3.55c-5,4.22-3.51,8.57-.47,13l-5.82-2.36Z" transform="translate(-14.36 -139.08)"/><path class="cls-5" d="M76.53,199l-13.72.23,8.85-5.54,7.91-.6v2.38Z" transform="translate(-14.36 -139.08)"/><path class="cls-3" d="M372.16,252l-7.78,0,1.53-3.52,5.81-.21-4.29-3.32,4.56-2.36,2.07-.16a1.39,1.39,0,0,1,1,.16l3.21,3.73-1,1.12-2.06,1.45Z" transform="translate(-14.36 -139.08)"/><path class="cls-5" d="M387.24,313.19H373.52l-1.6-2.31.39-.31,24.06-2-7.62,4.58Z" transform="translate(-14.36 -139.08)"/><path class="cls-5" d="M238,381.44c1-2.2,2-4.41,3.06-6.59.87-1.75,1.89-3.46,2.85-5.19l.29,7.07L244,379l-2.94,9.55H238Z" transform="translate(-14.36 -139.08)"/><path class="cls-3" d="M140.5,261.39l-3-7.06,3-2.35,3.43-.37-.14.14,2.85,2.55h0l0,4.74Z" transform="translate(-14.36 -139.08)"/><path class="cls-3" d="M50.63,209.61l3-3.53L64,207.24C65,210.52,63,212,58.25,212l-1.17-1.84L55.2,212Z" transform="translate(-14.36 -139.08)"/><path class="cls-3" d="M276.13,223.62l6,.1-7.53,11-3.17-8.65h0Z" transform="translate(-14.36 -139.08)"/><path class="cls-5" d="M402.47,324.95c1.21-3.78,1.33-8.41,9.16-7l.21,4.71-.5,1.17Z" transform="translate(-14.36 -139.08)"/><path class="cls-3" d="M254.86,254.34c-1.5-2.34-3.08-4.66-4.31-7.08-.08-.17,2.45-1.13,3.77-1.72l4.25,7.46Z" transform="translate(-14.36 -139.08)"/><path class="cls-3" d="M236.68,407.28l-7.85,9.46,6.09-14.12,1.93,1.83Z" transform="translate(-14.36 -139.08)"/><path class="cls-3" d="M436,400.27c2.7-5.74,4.56-6.15,10.66-2.35l-1.52,3.53H439Z" transform="translate(-14.36 -139.08)"/><path class="cls-3" d="M323.39,197.63l-5.62-3.39c1.74-.76,3.52-2.17,5.2-2.11,2,.08,3.86,1.44,5.79,2.25Z" transform="translate(-14.36 -139.08)"/><path class="cls-5" d="M244.06,362.61l-10.66-4.7-1.58-3.53.29-1.38,2.68.38,1.28,1.21,4.82,2.28Z" transform="translate(-14.36 -139.08)"/><path class="cls-5" d="M224.52,336.63l-4.84-1.1q0-2.94,0-5.88,0-1.18,0-2.37,0-2.35,0-4.7l3.27-2.24C224.16,325.74,218.67,331.51,224.52,336.63Z" transform="translate(-14.36 -139.08)"/><path class="cls-3" d="M496.89,362.61l2.9-10.59C506.66,355.15,504.75,358.66,496.89,362.61Z" transform="translate(-14.36 -139.08)"/><path class="cls-5" d="M317.17,186.07l-6.09-4.75,9.14-2.3,1.52,7.05Z" transform="translate(-14.36 -139.08)"/><path class="cls-5" d="M304.58,188.34l5,4.79c-2.72,1.78-5.51,4.74-7.78-.3Z" transform="translate(-14.36 -139.08)"/><path class="cls-3" d="M417.72,334.34l-3.07,2.37-6.09-3.53,3-3.53h0l5.73,2.36Z" transform="translate(-14.36 -139.08)"/><path class="cls-3" d="M356.63,276.7l.29,3.26q0,2.58,0,5.15l-.42,3.34C352.48,285.07,352.56,279.8,356.63,276.7Z" transform="translate(-14.36 -139.08)"/><path class="cls-5" d="M365.84,306.17l-3-1.24-5.78-9.85,2.58.71,3.22,3.28,3.31,6.84Z" transform="translate(-14.36 -139.08)"/><path class="cls-3" d="M174.65,282.39a1,1,0,0,1,.86.16l1.76,1.1-.11-.1,2.94,1.36h0l0,2.37H171v-4.7h0Z" transform="translate(-14.36 -139.08)"/><path class="cls-3" d="M476.48,394.21c-1.06-1.86-2.22-2.95-2.1-3.95s1.64-1.66,2.54-2.48c1,1.12,2.43,2.15,2.91,3.4C480,391.69,478.26,392.66,476.48,394.21Z" transform="translate(-14.36 -139.08)"/><path class="cls-3" d="M329.65,361.31c-1.51-2.08-2.77-3.2-3.06-4.46-.15-.63,1.46-1.51,2.27-2.27,1.14,1.05,2.64,2,3.27,3.21C332.43,358.35,331,359.44,329.65,361.31Z" transform="translate(-14.36 -139.08)"/><path class="cls-5" d="M200.45,291.75l-5.12,5h-3q0-2.35,0-4.71l3.27-4.16Z" transform="translate(-14.36 -139.08)"/><path class="cls-3" d="M451.21,395.56l-.24-2.74,6.05-4.57C457.8,392,456.78,394.85,451.21,395.56Z" transform="translate(-14.36 -139.08)"/><path class="cls-5" d="M236.85,404.45l-1.93-1.83q0-2.35,0-4.71l3-3.53q0-.59,0-1.18h2.77l0,3.14Z" transform="translate(-14.36 -139.08)"/><path class="cls-3" d="M634.64,402l-7.36.56-.45-2.21,7.71-1.09Z" transform="translate(-14.36 -139.08)"/><path class="cls-3" d="M220.15,437.89C218.07,439,217,440.09,216,440c-1.19-.08-2.26-1.13-3.39-1.76.84-.82,1.67-2.3,2.54-2.31C216.45,435.92,217.8,436.91,220.15,437.89Z" transform="translate(-14.36 -139.08)"/><path class="cls-5" d="M367.43,244.92l4.29,3.32-5.81.21Z" transform="translate(-14.36 -139.08)"/><path class="cls-16" d="M359.65,295.79l-2.57-.71q-.09-2.72-.18-5.43l5.86-.07Z" transform="translate(-14.36 -139.08)"/><path class="cls-5" d="M212.08,306.11l1.52,4.71-7-3.76Z" transform="translate(-14.36 -139.08)"/><path class="cls-3" d="M263.11,239.75c-3.63,1.48-4.76,2.28-5.9,2.28-.65,0-2-1.65-1.82-1.93a5.17,5.17,0,0,1,3-1.73C259.43,238.24,260.63,239,263.11,239.75Z" transform="translate(-14.36 -139.08)"/><path class="cls-5" d="M140.5,261.39l6.09-2.35q1,5.49-6.09,4.71Z" transform="translate(-14.36 -139.08)"/><path class="cls-3" d="M192.28,292q0,2.35,0,4.71l-3.75-1.19Z" transform="translate(-14.36 -139.08)"/><path class="cls-5" d="M370.49,310.84l-4.64-4.67.33-.26,6.15,4.66-.39.31Q371.21,310.83,370.49,310.84Z" transform="translate(-14.36 -139.08)"/><path class="cls-5" d="M143.93,251.61l-3.43.37-3-2.35q0-1.16,0-2.32l.47-.34Z" transform="translate(-14.36 -139.08)"/><path class="cls-3" d="M364.18,180.24l-1.46-1,.14-1.44,6.09-1.18q0,1.18,0,2.35Z" transform="translate(-14.36 -139.08)"/><path class="cls-5" d="M91.74,193.3l-7.59-.08-3.73-.35.94-1.87,2.64-.1,9.8,2Z" transform="translate(-14.36 -139.08)"/><path class="cls-5" d="M222.74,347.31l2.94.56L222.74,352Z" transform="translate(-14.36 -139.08)"/><path class="cls-5" d="M417.34,332l-5.73-2.36.08-3.66Z" transform="translate(-14.36 -139.08)"/><path class="cls-3" d="M92.22,212.69c-1.22.64-2.29,1.47-2.62,1.32a7.73,7.73,0,0,1-2-1.84c.74-.38,1.5-1.07,2.21-1S91.1,211.93,92.22,212.69Z" transform="translate(-14.36 -139.08)"/><path class="cls-3" d="M197.31,307.82c-1.14.72-2.09,1.62-2.46,1.49a8.07,8.07,0,0,1-2.24-1.66c.69-.43,1.37-1.19,2.08-1.21S196.12,307.15,197.31,307.82Z" transform="translate(-14.36 -139.08)"/><path class="cls-5" d="M370.77,208.52l-1.83-1.27q0-1.18,0-2.35h3l2.76,3.32Z" transform="translate(-14.36 -139.08)"/><path class="cls-5" d="M171,287.29H177l-6.1,1.18Z" transform="translate(-14.36 -139.08)"/><path class="cls-3" d="M240.74,393.2H238q0-2.35,0-4.71h3.1l.65,2.45a.76.76,0,0,0-.23,1Z" transform="translate(-14.36 -139.08)"/><path class="cls-5" d="M356.58,185.94l6.21-2.38.07,2.51Z" transform="translate(-14.36 -139.08)"/><path class="cls-3" d="M627.17,389.13v3.41l-1.49.06-.4-3.41Z" transform="translate(-14.36 -139.08)"/><path class="cls-5" d="M161.82,280.22l1.52,4.72Z" transform="translate(-14.36 -139.08)"/><path class="cls-5" d="M408.56,353.19c1,.88,2.36,1.67,2.74,2.68.16.43-1.77,1.34-2.74,2Z" transform="translate(-14.36 -139.08)"/><path class="cls-5" d="M362.87,232l-4.57,1.18-.58-1.85Z" transform="translate(-14.36 -139.08)"/><path class="cls-5" d="M369,179q0-1.18,0-2.35H375L372,179Z" transform="translate(-14.36 -139.08)"/><path class="cls-5" d="M134.34,243.74l.15-2.49,2.91,2.63a.81.81,0,0,0,.26,1l.21,2.1-.47.34Z" transform="translate(-14.36 -139.08)"/><path class="cls-5" d="M408.56,340.25q0,1.76,0,3.53l-2.72-3.52Z" transform="translate(-14.36 -139.08)"/><path class="cls-5" d="M201.42,301.41l.35-3.32,2.7,3.32Z" transform="translate(-14.36 -139.08)"/><path class="cls-5" d="M394.85,317.88l2.58-3.12,2,3.12Z" transform="translate(-14.36 -139.08)"/><path class="cls-5" d="M344.59,193.13l6.09,1.18Z" transform="translate(-14.36 -139.08)"/><path class="cls-3" d="M195.55,287.83,192.28,292v-4.52Z" transform="translate(-14.36 -139.08)"/><path class="cls-5" d="M439,401.45h0Z" transform="translate(-14.36 -139.08)"/><path class="cls-5" d="M291.34,191l4.77,1.77Z" transform="translate(-14.36 -139.08)"/><path class="cls-3" d="M359.82,240.21l.07,2.1-3.12-2.1Z" transform="translate(-14.36 -139.08)"/><path class="cls-3" d="M137.45,249.62l3,2.35h-3Z" transform="translate(-14.36 -139.08)"/><path class="cls-3" d="M362.87,186.07l-.07-2.51,1.41-1.1Z" transform="translate(-14.36 -139.08)"/><path class="cls-3" d="M91.74,193.3l2.07-.44a4.06,4.06,0,0,1,1.08-.25l-.1.57,0,2.31Z" transform="translate(-14.36 -139.08)"/><path class="cls-3" d="M80.42,192.87l3.73.35-4.56,2.27q0-1.19,0-2.38l.33-.31Z" transform="translate(-14.36 -139.08)"/><path class="cls-3" d="M457,388.3l3.27-4.62Z" transform="translate(-14.36 -139.08)"/><path class="cls-5" d="M359.82,209.61l3,3.53Z" transform="translate(-14.36 -139.08)"/><path class="cls-3" d="M358.27,327.12c-.56-.65-1.3-1.18-1.17-1.43.29-.53,1-.91,1.59-1.35.29.46.82.92.8,1.37S358.85,326.49,358.27,327.12Z" transform="translate(-14.36 -139.08)"/><path class="cls-3" d="M238,394.38l-3,3.53Z" transform="translate(-14.36 -139.08)"/><path class="cls-5" d="M411.6,329.65l-3,3.53v-2.35l1.52-1.18Z" transform="translate(-14.36 -139.08)"/><path class="cls-5" d="M234.92,363.79l2.26-.57-.73,1.75Z" transform="translate(-14.36 -139.08)"/><path class="cls-3" d="M472.11,400.76l1.27.42c-.18.33-.27.84-.58.93s-.82-.23-1.25-.37Z" transform="translate(-14.36 -139.08)"/><path class="cls-5" d="M408.56,381.44l1.52,2.36Z" transform="translate(-14.36 -139.08)"/><path class="cls-5" d="M381.14,324.95v2.35l-2.38-1.45Z" transform="translate(-14.36 -139.08)"/><path class="cls-5" d="M120.69,233.14l-1.52,2.36Z" transform="translate(-14.36 -139.08)"/><path class="cls-3" d="M283.09,229.29c-.19.33-.28.84-.59.93s-.82-.23-1.24-.38c.19-.33.28-.84.58-.93S282.66,229.15,283.09,229.29Z" transform="translate(-14.36 -139.08)"/><path class="cls-14" d="M270,226l-1.51-2.31,0,0,3,2.32h0Z" transform="translate(-14.36 -139.08)"/><path class="cls-5" d="M359.18,217.52l-.55,1c-.42-.14-1.09-.21-1.2-.45s.3-.64.48-1Z" transform="translate(-14.36 -139.08)"/><path class="cls-5" d="M55.2,212l1.88-1.84L58.25,212Z" transform="translate(-14.36 -139.08)"/><path class="cls-5" d="M335.45,193.13l-1.83,1.8-.49-.38,2.33-1.42Z" transform="translate(-14.36 -139.08)"/><path class="cls-5" d="M353.73,186l2.89-.12-2.89,2.52Q353.73,187.23,353.73,186Z" transform="translate(-14.36 -139.08)"/><path class="cls-5" d="M329.36,188.42l1.88-1.84,1.17,1.84Z" transform="translate(-14.36 -139.08)"/><path class="cls-5" d="M180.09,287.28l0-2.37,3.77,2.16Z" transform="translate(-14.36 -139.08)"/><path class="cls-3" d="M186.19,287.35l3,.28,0,2h-3.05Q186.19,288.5,186.19,287.35Z" transform="translate(-14.36 -139.08)"/><path class="cls-5" d="M189.24,289.64l0-2,3.07-.17v2.18Z" transform="translate(-14.36 -139.08)"/><path class="cls-5" d="M186.19,289.64h3l-1.17,1.84Z" transform="translate(-14.36 -139.08)"/><path class="cls-5" d="M137.45,252h3l-3,2.35Z" transform="translate(-14.36 -139.08)"/><path class="cls-5" d="M359.82,240.21h-3l1.52-2.35h1.52Z" transform="translate(-14.36 -139.08)"/><path class="cls-5" d="M359.82,252h-3.06l1.18-1.84Z" transform="translate(-14.36 -139.08)"/><path class="cls-5" d="M122.22,249.62l3,1.18Z" transform="translate(-14.36 -139.08)"/><path class="cls-5" d="M241,438.1l3.92,2Z" transform="translate(-14.36 -139.08)"/><path class="cls-5" d="M374.06,242.39l-2.07.16q0-1.8.09-3.59Z" transform="translate(-14.36 -139.08)"/><path class="cls-1" d="M682.08,398.68l-.28-3,1,2.13a2,2,0,0,0-.4.74Z" transform="translate(-14.36 -139.08)"/><path class="cls-3" d="M499.61,348.18l-3-1.87Z" transform="translate(-14.36 -139.08)"/><path class="cls-13" d="M256.56,438.11l.37.42-.52.3A.65.65,0,0,0,256.56,438.11Z" transform="translate(-14.36 -139.08)"/><path class="cls-3" d="M410.08,329.65l-1.52,1.18Z" transform="translate(-14.36 -139.08)"/><polygon class="cls-17" points="618.67 226.39 619.04 226.39 618.86 226.12 618.67 226.39"/><path class="cls-9" d="M513.62,265.71c.46,1.5.32,3.84,1.49,4.34,4.52,1.93,3.56,4.06,1.64,6.78-5.29,7.49-14.6,11.19-23.64,15.11-2.57,1.12-5.59,1.62-8.4,2.41l-7.6,1.17,1.49-5.83,4.12,2.08,1.87-.7-12.06-21.62c1.63-6-1.64-10.88-6.25-15.39l1.22-1.14,5-3.31c4.72-.51,6.76,1.05,6.08,4.71l-3.09,3.46,2.44.61.66-4.07,3.75,1.29c2.93-2.74,5.15-5.27,8-7.32s6.32-3.7,9.52-5.52l.1-.23,5.8-.14c6.17-.85,2.15-4.62,3.32-6.9l10.68-2.37c3.25-.73,6.57-1.32,9.74-2.23,5.17-1.47,10.15-4.21,15.39-4.5,9.37-.53,15.58-4.85,21.72-9.09C573.29,212.7,579,207.19,585,202a7.39,7.39,0,0,0,1.65-2.56c4.06-8.46,6.18-18.25,21.91-18.5.74,0,1.45-.92,1.85-1.19L602,163l-4.69,5.68c-3.5-1.41-6.8-1.92-8.17-3.45-3.91-4.41-8.35-3-13.09-1.54l-2.93,0L573,162.4l.1-2.2,1.55-.12L595.91,158l1.5,1.7,1.53-1.69,1.5-.24,15.26-2.33c6.17,1.9,15.54-.88,17.54,7.15,0,0,.47,0,.73,0l5.68.1a2,2,0,0,1,.34,1l-7.41.42,4.44,3.11-4,.87.17,1,5.32.44h1.52l.88,4.46-10.29-2.27-.79,1.49c1,.42,1.89.89,2.9,1.23s2.37.68,4.85,1.38c-10.89,3.14-10.88,3.13-6.19,10.27a2.22,2.22,0,0,1,.47,1.64c-1.57,5.26-3.12,10.53-5,15.73-.34,1-1.94,1.87-3.24,2.34-4.81,1.71-9.57,4-14.65,4.67-16.59,2.12-26.13,13.1-40.19,18.29-.42.15-.6.66-1,.86-8,3.86-15.74,8-24,11.43-4.76,2-10.78,2.12-15.46,4.16-9.66,4.21-18.8,9.13-28.15,13.76a.86.86,0,0,1-.3-.94l-1.31-1.38-1.75-.27-1.38.06,6.52,14.09,11-5.66A1.88,1.88,0,0,1,513.62,265.71Zm4-29.36c-.42-.14-.95-.47-1.25-.38s-.63.67-.52.92a1.46,1.46,0,0,0,1.18.4C517.36,237.19,517.45,236.68,517.64,236.35Zm109.82-71-.55,1c.43.14.94.46,1.25.37s.39-.6.58-.93Z" transform="translate(-14.36 -139.08)"/><path class="cls-18" d="M637,167.24l-4.44-3.11,7.41-.42c4.2-.42,9.09,4.16,12.65-1h5.26c2.63,1.67,5.42,3.21,7.83,5,2.12,1.61,3.73,3,4.9-.44l0,0,3-.17,7.62.17c2.21-.76,4.52-1.4,6.61-2.33a19.81,19.81,0,0,0,3.47-2.49l3.53,3.57-2.88,1.15c-9.23,3.1-9.55,10.18-12.22,16.23-.86,1.94-1.46,4.52-3.33,5.51-6,3.14-6.93,6.28-2.08,9.53-2.41,3.66-7.11,7.52-6.06,9.81,3,6.61-2.61,10.87-5.82,15.13-2.81,3.72-3.47,6.27-1,9.72-5.48,4-11.55-2.35-15.72-.06l-5.55,6L637.53,233l-2.74-.86c-2.13,2.12-5.54,4.06-6.11,6.41-1.13,4.65-5.76,4.14-9.5,5.11-4.65,1.2-9.54,2-14,3.51-6.28,2.18-7,11.62-2.06,15.4,2.83,2.19,6.51,5.78,5.89,8.12-1.11,4.19.54,6.9,2.69,10.33,1.39,2.21.87,5.72-.45,8.11-.66,1.19-5,1.15-7.73,1.67l-5.86-4.66-4.84,1.18-6-12c2.59-4.58-1.79-7-4.75-10.13-2.57-2.75-5.81-6.94-4.75-9.51,2.15-5.25,5.6-11.34,11.05-14.33a63.2,63.2,0,0,1,25.8-7.62c13-.68,23.65-3.23,32.32-10.77,3.68-3.2,8.15-5.85,11.75-9.09,1-.91.63-3.08.19-4.55-.36-1.22-2.89-2.73-2.5-3.31,4.5-6.62,1.19-15.45,10.14-20.86,3.57-2.15,5.31-5.59.14-7.57-5.93-2.28-7.9-5.36-5.85-10.4l-2.23-.26-4.31,6.69-13.77-4h-1.52Z" transform="translate(-14.36 -139.08)"/><path class="cls-15" d="M402.55,194.22q0-3.36.05-6.73l11.73-3.91c4.64,1.84,9.23,4.41,12.74,1.58,6.51,3.88,12.32,7.71,18.64,11,3.89,2,8.21,2.33,9.24-1.89l12.12,1.37L458.76,190l1.19-1.72,7,1.66c3.28.79,6.78,2.33,8.66-1.55h13.06l.62-1.93c-1.8-.92-4.15-2.9-5.28-2.55-3.08,1-5.63,2.92-8.4,4.48-4.77.37-4.73-2.09-4.55-4.62l7.64-4.81h0l10.62-4.7a3.77,3.77,0,0,0,1.21.13l1.78,1.94,1.82-2a3.9,3.9,0,0,0,1.22-.24c2.52,0,5.06-.1,7.56.09,10.48.82,20.22-4.12,30.8-2.3l1.87,1.81-5,1.23c-13.25,3.27-20.7,12.8-32.27,18-2.32,1-3,4.31-4.41,6.54-3.84,5.91-6.45,12.57-15,15.73a18.22,18.22,0,0,1-7,1.38c-9-.54-17.93-1.89-26.91-2.06-6.46-.13-13,1.18-19.45,1.73-3.18.27-6.4.28-9.8.41,2.1-6.43,1.14-7-10.16-7l15.52-9.93a17.28,17.28,0,0,0-3-4.81c-2.06-2.1-4.9-3.22-6.52.59h0l-6.13,0Z" transform="translate(-14.36 -139.08)"/><path class="cls-19" d="M471,183.8c-.18,2.54-.22,5,4.55,4.62h0c-1.88,3.88-5.38,2.34-8.66,1.55l-7-1.66L458.76,190l8.31,5.59L455,194.25c-1,4.22-5.35,3.9-9.24,1.89-6.32-3.26-12.13-7.09-18.64-11-3.51,2.82-8.09.25-12.73-1.58l.43-2.16,0,0,3.09-2.37,0,0,13.81-9.44,8.93-.27,15.23,0,2.77.24,4.84,2.1,4.47.19c2.14.83,4.56,1.41,6.35,2.57s3,2.93,4.45,4.43h0a58.66,58.66,0,0,0-7.51.12c-1.63.22-3.08,1.24-4.61,1.9Z" transform="translate(-14.36 -139.08)"/><path class="cls-19" d="M352,162.47c-1.5,2.24-2.93,4.51-4.54,6.7a27.9,27.9,0,0,1-2.89,2.91l-4.92,2.1-4-2.11-4.69-2.54c5.46-3.94,6.15-8.48,2.35-13.26l4.49-1.87-.32-1L324,152.8v-8.94H307.94l.09-.32.35-2.08,31.16,0,5,2.06,2.76.23c3,3.42,6.25,3.3,9.63.32l2.34-.25a25.65,25.65,0,0,1,3.66,2.21c.61.52.65,1.44,1,2.18l-.55-.08-.54.11-10,2.89Zm-8.17,1.75-.23-1.34-4.33.32.27,1.45Z" transform="translate(-14.36 -139.08)"/><path class="cls-20" d="M80.42,192.87l-.51-.07-.33.31-7.91.6-8.85,5.54H61.3L59,196.59l1.48-.75-4-.74c-5.24-2.76-6.6-6.19-3-10.47a1,1,0,0,1,.08-.92c9-2.47,11.87-5.46,11.63-12.2l6.8-1.88,8.69.09,13.76,2.23c-1.73.58-4.12.79-5.07,1.8-5.24,5.6-10.13,11.4-15.26,17.27l6.92-.3.33.28Z" transform="translate(-14.36 -139.08)"/><path class="cls-21" d="M691.92,167.21l2.88-1.15c5.8.87,11.56,1.93,17.41,2.53,3.3.34,6.73-.06,10.1-.13l1.06.9c-5.75,3-6.56,8.62-11.77,12,3.64,3.06,7.86,5.94-.89,7.71-1.56.32-2.38,2.78-3.55,4.26l-16.73,2.2-.2-.16c0-2.44-.28-4.92.2-7.31,1.17-5.85,2.72-11.66,4.33-18.41l3.73-1.3-.18-.88Z" transform="translate(-14.36 -139.08)"/><path class="cls-5" d="M533.66,171.93c-10.58-1.82-20.33,3.12-30.8,2.3-2.5-.2-5-.07-7.56-.09l-.84-2.31,7-2.46,10.64.2.43.26-.48-.23c-1.06-3.56.73-6.12,5.05-7.27,5.33-1.41,10.82-2.45,16.24-3.65,4.71,3.84,16,5.36,22.91,3,3.2-1.08,6.24-2.72,9.56-3.18,2.2-.3,4.78,1,7.19,1.64l-.1,2.2c-3.7.8-7.35,2-11.12,2.29-5.86.43-11.81.23-17.72.29C538,163.58,534.11,166.19,533.66,171.93Z" transform="translate(-14.36 -139.08)"/><path class="cls-22" d="M707.16,193.37c1.16-1.47,2-3.94,3.55-4.26,8.74-1.77,4.52-4.65.89-7.71,5.21-3.42,6-9.08,11.77-12l1.76-.43,3.28.48,6.1,2.74c.83,2.95-2,9-4.63,12-1.11,1.28-.54,3.43-.74,5.19-2.89.81-7.22,1-8.42,2.56C716.63,197.32,712.1,195.42,707.16,193.37Z" transform="translate(-14.36 -139.08)"/><path class="cls-18" d="M235,153.13l-9.25,4.66-19,1.07,3.82-5.74c5.12-1.55,3-3.14,0-4.72l-1.84-1.78-.49.38,2.32,1.41c-1.13.68-2.36,2-3.39,1.94-5.26-.44-10.47-1.24-15.7-1.92l0-.53,2.43-1.43c2.9-.37,5.79-.92,8.72-1.09,10.81-.64,21.64-1.16,32.46-1.73l-8.32,3.89,8.56,3.31Z" transform="translate(-14.36 -139.08)"/><path class="cls-5" d="M530.43,148.48c-.14,2.46-.22,4.68,4.4,4.79,1.49,0,2.91,1.59,4.37,2.44l-5.13,2.08c-1.21-.52-2.5-1.55-3.64-1.46-5.6.42-11.16,1.14-16.73,1.75-2.91-5.52-7.67-7.05-14.4-5.54-6.44,1.45-12.77,1-18.11-3.8,8-5.23,16.9-2.22,25.16-2.56,3.18,4.64,8.4,5,14.24,4C523.87,149.65,527.15,149.06,530.43,148.48Z" transform="translate(-14.36 -139.08)"/><path class="cls-14" d="M167.87,153.11l3.09-2.44,1.51,1.29,4.52,2.4,4.62,4.54,1.5,3.45-7.89,2.95,10.9,3.09,4.19.07.39,2.19-11.85,3.58.4-3.4-3.68,1.08L169,162.47l-4.83,4-20.71-4.92-3.45-2.43-6.6-.48.08-1.51,8.18-.53,3.29.06c1.2,1.24,2.34,3.52,3.6,3.56,7.33.24,14.69-.05,22-.17l7.93-.43,0-1.82L171,155.47Z" transform="translate(-14.36 -139.08)"/><path class="cls-5" d="M722.31,168.46c-3.37.07-6.8.47-10.1.13-5.84-.6-11.61-1.66-17.41-2.53l-3.53-3.57A19.81,19.81,0,0,1,687.8,165c-2.08.94-4.39,1.57-6.61,2.33l-7.42-6c1.56-1.07,3.13-3.09,4.79-3.14a269.81,269.81,0,0,1,34.59,1.07L706,164Z" transform="translate(-14.36 -139.08)"/><path class="cls-1" d="M72,169.62l-6.8,1.88c.24,6.74-2.6,9.73-11.63,12.2L44,180a.76.76,0,0,0-.12-.91l4.34-1.6-6.75-3.15L43,173c1.26,0,2.9.33,3.71-.15,7.53-4.48,16.1-4.68,25-3.91A1.59,1.59,0,0,0,72,169.62Z" transform="translate(-14.36 -139.08)"/><path class="cls-23" d="M419.45,148.5l10.43,0,4.57-.2,14.89.28-7.85,4.33,2.91,1.22c-2.49,1-5.47,1.76-7,.91-5.19-2.88-6.41-.23-7.78,2.72l-4.12,0-4.76-2.26-2.7-.15L414.76,153l0,0Z" transform="translate(-14.36 -139.08)"/><path class="cls-5" d="M600.44,157.78l-1.5.24-3,0-21.31,2.07L581,146.16l6.51.23-3,3.94,3.83.72,6.35,2,5.83.23.27,3.72A6.85,6.85,0,0,1,600.44,157.78Z" transform="translate(-14.36 -139.08)"/><path class="cls-19" d="M513.7,158.08c5.57-.61,11.13-1.33,16.73-1.75,1.15-.09,2.43.94,3.64,1.46a.94.94,0,0,1-.68.89c-5.42,1.2-10.92,2.23-16.24,3.64-4.33,1.15-6.11,3.71-5.05,7.27l0,0-10.64-.2-1.35-4.09,4.67-2.64Z" transform="translate(-14.36 -139.08)"/><path class="cls-6" d="M600.42,153.24l-5.83-.23-6.35-2-3.83-.72,3-3.94,2.38-.05,22.7,4.56v0l3,1.69,4.19,1.49-4,1.42-15.26,2.33a6.48,6.48,0,0,0,.25-.83l6.94-2.13Z" transform="translate(-14.36 -139.08)"/><path class="cls-5" d="M235.05,143.66c-10.82.57-21.65,1.09-32.46,1.73-2.93.17-5.81.71-8.72,1.09,0-4.34,1.44-6.42,7.77-4,2,.77,5.32-.75,8-.77,13.14-.11,26.28-.2,39.41,0,3.41.06,6.79,1.26,10.19,1.94l-5.87,1.14Z" transform="translate(-14.36 -139.08)"/><path class="cls-5" d="M429.62,157.73c1.37-3,2.6-5.6,7.78-2.72,1.53.85,4.51.13,7-.91l-2.91-1.22,7.85-4.33c8.76-3.54,8.94-3.53,13.92,1.46-2.08.74-4,1.43-5.92,2.09-3.81,1.3-7.56,1.91-11.21,4.42C442.81,158.79,435.29,157.46,429.62,157.73Z" transform="translate(-14.36 -139.08)"/><path class="cls-5" d="M141.71,156.58l-8.18.53-.08,1.51,6.61.48-2.59,1.1h-7.63c-.71-8.23,2.18-7.74,15.44-9.4,4.73-.59,10.21,1.34,13.87-2.79.35-.39,3.37-.1,3.89.52.71.84.22,2.29.24,3.48-6.41.57-12.85,1-19.21,1.82C143.12,153.94,142.49,155.62,141.71,156.58Z" transform="translate(-14.36 -139.08)"/><path class="cls-5" d="M546.4,144.87l-4.68,7.37-4.64-5.64c2-1,4-2.65,6.09-2.72A50.27,50.27,0,0,1,555.69,145c2,.44,3.36,2.53,5,3.87-1.92,1-4.06,3-5.71,2.77-2-.26-3.65-2.34-5.34-3.72-.41-.33-.37-1-.54-1.51Z" transform="translate(-14.36 -139.08)"/><path class="cls-5" d="M478.65,179c-1.46-1.5-2.64-3.25-4.45-4.43s-4.21-1.74-6.35-2.57c1.92-.31,4.16-.24,5.7-1,6.09-3,12.78-1.74,15.71,3.3Z" transform="translate(-14.36 -139.08)"/><path class="cls-5" d="M612.54,150.89l-22.7-4.56c1-5,5.08-5.7,10.44-4.41,2.83.69,5.55,1.64,9.07,2.69l-4.8,2.36Z" transform="translate(-14.36 -139.08)"/><path class="cls-5" d="M352,162.47l.8-11.31,10-2.89,3.87,6.84-8.77.71-2.69,6.73Z" transform="translate(-14.36 -139.08)"/><path class="cls-5" d="M94.44,171.94l-13.76-2.23,41.42-.21.42.37L110,173.34Z" transform="translate(-14.36 -139.08)"/><path class="cls-24" d="M141.71,156.58c.78-1,1.41-2.64,2.36-2.75,6.37-.79,12.8-1.25,19.21-1.82q.07.55.16,1.1l1.32,3.61c-5.11,2.44-10,1-15-.33-1.37-.37-3.15.14-4.74.25Z" transform="translate(-14.36 -139.08)"/><path class="cls-5" d="M172.47,152,171,150.66,173,144l10.8,2.41H184l4.19-2.38,3.28,3.91s0,.53,0,.53l-3.39.15,1.55,2.11-5.12-2-9.13,3.21Z" transform="translate(-14.36 -139.08)"/><path class="cls-5" d="M512.11,145.88l-2.47-4.61c4.82,4.06,15.21-4.24,17.72,4.78C522.27,146,517.14,148.84,512.11,145.88Z" transform="translate(-14.36 -139.08)"/><path class="cls-23" d="M512.11,145.88c5,3,10.17.1,15.25.17l2.84.07.31,2.31-.08,0c-3.28.57-6.56,1.16-9.84,1.72-5.84,1-11.06.62-14.24-4Z" transform="translate(-14.36 -139.08)"/><path class="cls-5" d="M71.69,169c-8.86-.77-17.43-.58-25,3.91-.81.48-2.45.12-3.71.15,3-3.88,7.21-5.83,13.25-5.92,2.71,0,5.38-1.44,8.06-2.23h0Z" transform="translate(-14.36 -139.08)"/><path class="cls-5" d="M615.7,155.45l4-1.42c.9.31,1.85.95,2.69.87C634,153.85,634,153.82,634,162.56c-.25,0-.72.07-.73,0C631.25,154.57,621.87,157.36,615.7,155.45Z" transform="translate(-14.36 -139.08)"/><path class="cls-5" d="M431.61,169.66l-13.81,9.44C417.83,172.12,421.46,169.64,431.61,169.66Z" transform="translate(-14.36 -139.08)"/><path class="cls-5" d="M308.39,141.47l-.35,2.08-15.43.6a2.58,2.58,0,0,1,.25-.57c0-4.45,2.72-5.36,7.77-3.77C303.1,140.58,305.8,140.93,308.39,141.47Z" transform="translate(-14.36 -139.08)"/><path class="cls-5" d="M670.63,167.3c-1.17,3.39-2.78,2-4.9.44-2.41-1.84-5.21-3.38-7.83-5l9.11-4.28Z" transform="translate(-14.36 -139.08)"/><path class="cls-5" d="M652.63,162.68c-3.56,5.18-8.44.6-12.65,1a2,2,0,0,0-.34-1l12.73-4.49Q652.5,160.43,652.63,162.68Z" transform="translate(-14.36 -139.08)"/><path class="cls-5" d="M64.34,164.88c-3.52-.34-8.43,1.2-8.85-4,5.1-1.12,9.41-1.85,8.85,4Z" transform="translate(-14.36 -139.08)"/><path class="cls-5" d="M414.77,181.43l-.43,2.16L402.6,187.5l-.17-1.43Z" transform="translate(-14.36 -139.08)"/><path class="cls-5" d="M455.77,169.45l-15.23,0C444.8,166.29,451.64,166.31,455.77,169.45Z" transform="translate(-14.36 -139.08)"/><path class="cls-5" d="M363.94,148.25c-.3-.74-.34-1.66-1-2.18a25.65,25.65,0,0,0-3.66-2.21c1.51-.05,3.15-.42,4.5-.09a48.36,48.36,0,0,1,6.08,2.27Z" transform="translate(-14.36 -139.08)"/><path class="cls-5" d="M122.1,169.51l6.15-7,.38,2.74,3,2.87-6.81,1.65-2.31.1Z" transform="translate(-14.36 -139.08)"/><path class="cls-5" d="M357,144.11c-3.38,3-6.61,3.1-9.63-.32l8.71-2.37Z" transform="translate(-14.36 -139.08)"/><path class="cls-5" d="M115,164.62c-2.89,1.35-4.28,2.52-5.4,2.38-1.33-.17-2.42-1.46-3.62-2.26,1.06-.7,2.07-1.88,3.21-2C110.53,162.68,111.94,163.57,115,164.62Z" transform="translate(-14.36 -139.08)"/><path class="cls-5" d="M488.85,158.23h10.07l0,1.17H488.85Z" transform="translate(-14.36 -139.08)"/><path class="cls-5" d="M164.76,156.72l-1.32-3.61h4.43l3.13,2.36-.11,2.56Z" transform="translate(-14.36 -139.08)"/><path class="cls-14" d="M128.63,165.26l-.38-2.74,1.59-2.32h7.63l.23,1.59Z" transform="translate(-14.36 -139.08)"/><path class="cls-5" d="M362.87,177.83l-.14,1.44-12-.39,6.09-2.23Z" transform="translate(-14.36 -139.08)"/><path class="cls-5" d="M613.64,141.87h7.21l0,1.16h-7.23Q613.64,142.46,613.64,141.87Z" transform="translate(-14.36 -139.08)"/><path class="cls-5" d="M384.19,183.72l-7.2-.46,7.2-4.25Z" transform="translate(-14.36 -139.08)"/><path class="cls-5" d="M419.45,148.5,414.79,153l-2.85-3.17Z" transform="translate(-14.36 -139.08)"/><path class="cls-5" d="M430.78,160.66h5.85l.11,1.38-5.88.31Z" transform="translate(-14.36 -139.08)"/><path class="cls-5" d="M465.81,160.66h5.85l.11,1.38-5.88.31Z" transform="translate(-14.36 -139.08)"/><path class="cls-5" d="M531.24,139.54h4.39l.18,1-4.44.54Z" transform="translate(-14.36 -139.08)"/><path class="cls-5" d="M356.77,169.59l-1.52-4.71Z" transform="translate(-14.36 -139.08)"/><path class="cls-5" d="M94,159.51l-4.24.42-.27-1.43,4.28-.31Z" transform="translate(-14.36 -139.08)"/><path class="cls-5" d="M479.45,159.57v-3.41h1.4v3.41Z" transform="translate(-14.36 -139.08)"/><path class="cls-5" d="M138.23,144.34h4.42v1.08h-4.42Z" transform="translate(-14.36 -139.08)"/><path class="cls-5" d="M276.57,143.84l-13,0Z" transform="translate(-14.36 -139.08)"/><path class="cls-5" d="M41.45,174.31l6.75,3.15-4.34,1.6-2.35-2.39-1.55-1.2Z" transform="translate(-14.36 -139.08)"/><path class="cls-5" d="M344.59,143.57l-5-2.06Z" transform="translate(-14.36 -139.08)"/><path class="cls-5" d="M458.49,164c-.93.3-1.74.78-2.08.63-.58-.27-.87-.92-1.29-1.41a5.72,5.72,0,0,1,1.89-.38C457.5,162.92,457.86,163.48,458.49,164Z" transform="translate(-14.36 -139.08)"/><path class="cls-5" d="M624.54,147.32c-.87.4-1.6,1-1.91.84a6.23,6.23,0,0,1-1.66-1.3,5.71,5.71,0,0,1,1.85-.54C623.32,146.35,623.78,146.86,624.54,147.32Z" transform="translate(-14.36 -139.08)"/><path class="cls-5" d="M434.46,148.25l-4.57.2,2.52-2.21Z" transform="translate(-14.36 -139.08)"/><path class="cls-5" d="M504.82,162.64l-4.67,2.64Z" transform="translate(-14.36 -139.08)"/><path class="cls-5" d="M420.74,155.49l4.76,2.26Z" transform="translate(-14.36 -139.08)"/><path class="cls-5" d="M463.39,171.79l-4.84-2.1Z" transform="translate(-14.36 -139.08)"/><path class="cls-5" d="M417.82,179.08l-3.09,2.37Z" transform="translate(-14.36 -139.08)"/><path class="cls-5" d="M494.08,174.38l-1.82,2-1.78-1.94Z" transform="translate(-14.36 -139.08)"/><path class="cls-5" d="M728.41,169.41l-3.28-.48Z" transform="translate(-14.36 -139.08)"/><path class="cls-5" d="M673.58,167.15l-3,.17,1.71-1.95Z" transform="translate(-14.36 -139.08)"/><path class="cls-5" d="M491.38,166.38c.19-.33.28-.84.59-.93s.82.23,1.24.38c-.19.33-.28.84-.59.93S491.81,166.53,491.38,166.38Z" transform="translate(-14.36 -139.08)"/><path class="cls-5" d="M456.72,158.68c-.19.33-.28.83-.59.93s-.82-.23-1.24-.38c.19-.33.28-.84.58-.93S456.29,158.54,456.72,158.68Z" transform="translate(-14.36 -139.08)"/><path class="cls-5" d="M408,156.35c-.18.33-.28.84-.58.93s-.82-.23-1.24-.37c.18-.33.27-.84.57-.93S407.58,156.21,408,156.35Z" transform="translate(-14.36 -139.08)"/><path class="cls-5" d="M414.76,153l3.29,2.33Z" transform="translate(-14.36 -139.08)"/><path class="cls-5" d="M530.51,148.43l-.31-2.31,2.61,1.28Z" transform="translate(-14.36 -139.08)"/><path class="cls-5" d="M162.93,144.15c.43.14,1.08.22,1.21.46s-.3.63-.49,1c-.42-.14-1.09-.22-1.21-.45S162.74,144.47,162.93,144.15Z" transform="translate(-14.36 -139.08)"/><path class="cls-5" d="M285.49,143.8l-5.4.06Z" transform="translate(-14.36 -139.08)"/><path class="cls-5" d="M615.53,152.53l-3-1.69Z" transform="translate(-14.36 -139.08)"/><path class="cls-23" d="M184,146.37h0Z" transform="translate(-14.36 -139.08)"/><path class="cls-25" d="M640.06,169.6l13.77,4,4.31-6.69,2.23.26c-2,5-.08,8.13,5.85,10.4,5.17,2,3.43,5.42-.14,7.57-8.95,5.4-5.64,14.23-10.14,20.86-.4.58,2.13,2.09,2.5,3.31.44,1.47.83,3.63-.19,4.55-3.61,3.24-8.08,5.9-11.75,9.09-8.67,7.54-19.35,10.09-32.32,10.77a63.2,63.2,0,0,0-25.8,7.62c-5.45,3-8.91,9.08-11.05,14.33-1.05,2.58,2.18,6.76,4.75,9.51,3,3.16,7.34,5.54,4.75,10.13l-10.58.26c-6,3.37-11.66,7-17.92,10-7.39,3.52-9.41,2.45-9.68-4.24-.29-7.28-3.17-9.76-12.19-10.5-3.39-3.27-7.32-4.24-12.91-3.25-3,.52-6.6-1.18-9.93-1.88a1.87,1.87,0,0,0-.68-.77L500.17,259c9.35-4.63,18.49-9.55,28.15-13.76,4.68-2,10.7-2.2,15.46-4.16,8.28-3.42,16.05-7.57,24-11.43.41-.2.6-.7,1-.86,14.06-5.19,23.6-16.18,40.19-18.29,5.08-.65,9.84-3,14.65-4.67,1.3-.46,2.9-1.38,3.24-2.34,1.87-5.2,3.41-10.47,5-15.73a2.22,2.22,0,0,0-.47-1.64c-4.7-7.13-4.7-7.13,6.19-10.27-2.48-.7-3.7-1-4.85-1.38s-1.93-.82-2.9-1.23l.79-1.49,10.29,2.27Z" transform="translate(-14.36 -139.08)"/><path class="cls-13" d="M603.52,290.81c2.69-.52,7.06-.48,7.72-1.67,1.32-2.38,1.84-5.9.45-8.11-2.16-3.43-3.8-6.14-2.69-10.33.62-2.34-3.06-5.93-5.89-8.12-4.89-3.78-4.22-13.23,2.06-15.4,4.45-1.54,9.34-2.3,14-3.51,3.74-1,8.37-.46,9.5-5.11.57-2.35,4-4.29,6.11-6.41l2.74.86,2.56,6.07,6,5.49c-.1.75-.52,1.58-.25,2.24,6.22,15.71,1.94,22.64-17.91,28.86a85.7,85.7,0,0,0-11,2.61c-.46.16,1.09,3.66,1.7,5.62,7.88,8.85,6.64,12.89-4.29,18.35l-4.42-5.52,1.9-1.69-2.29.66-5.91-2.44-3.1,1.14-.27-2.22.34-.24,2.95-1.11Z" transform="translate(-14.36 -139.08)"/><path class="cls-20" d="M682.79,397.82l-1-2.13c-1.33-.28-3.48-.27-3.85-.89-3.81-6.4-9.74-7.07-17.3-4.28a15.39,15.39,0,0,1-3.74.36c-6.51.33-3.71-3.14-3-5,2.48-6.33,5.45-12.54,7.42-17,3.52-2.75,5.4-4.84,8-6.09,4.87-2.36,8.11-5.43,9.52-9.7l10.49,6.16,3-16.4L700.6,358l.33,3.41a.79.79,0,0,1,.2.92c3.4,5.28,1.3,9.25-4.47,12.74-2,1.23-3.08,3.45-4.61,5.2-1.71,1.95-3.47,3.87-5.2,5.81-.91,1-2.58,2.06-2.54,3.06a62.87,62.87,0,0,0,1.47,8.72Z" transform="translate(-14.36 -139.08)"/><path class="cls-1" d="M685.77,397.87a62.87,62.87,0,0,1-1.47-8.72c0-1,1.63-2,2.54-3.06,1.73-1.94,3.49-3.86,5.2-5.81,1.53-1.75,2.57-4,4.61-5.2,5.78-3.49,7.88-7.47,4.47-12.74,3.36,2.72,6.74,5.43,10.09,8.16,1.62,1.32,3.19,2.69,4.78,4,3,9.55-2.74,17.78-7.24,26-1.06,1.94-5.83,3.91-8.73,3.76C694.34,404,687,404.52,685.77,397.87Z" transform="translate(-14.36 -139.08)"/><path class="cls-17" d="M678.84,353.11c-1.41,4.27-4.65,7.34-9.52,9.7-2.57,1.25-4.45,3.34-8,6.09-2,4.43-4.94,10.64-7.42,17-.73,1.88-3.54,5.34,3,5l-2.14,1.92c-4.4,1.13-8.72,2.7-13.23,3.17-1.83.19-5.36-1.72-5.89-3.16-1.63-4.47-2.27-9.16-3.13-13.78s-3.15-9.39,4.21-12.26c-5.74,6.62-.86,12.61,1.74,20.1,5.2-5.12,11.46-8.92,13.2-13.71,1.62-4.47,11.19-9.08,2.23-14.74l-3.71,1.74a12.42,12.42,0,0,1,15-8.13l3.47-7.08L681.55,347Z" transform="translate(-14.36 -139.08)"/><path class="cls-26" d="M600.48,294.39l3.1-1.14c-1.5,5.67,1.1,10,4.86,15.1,4.56,6.18,6.07,13.94,7.52,21.17.8,4,1,7.32,6.78,8.47-17.51-4.47-20.36-18.1-29.78-27.61l1.85-1.56,10.88,7.32C604.47,308.65,597.29,302.18,600.48,294.39Z" transform="translate(-14.36 -139.08)"/><path class="cls-17" d="M685.77,324.95c12.19,2.59,18.63,10.25,24.45,18-3.5,1.73-4.69,1.66-8.62-2.21-2.2-2.17-3.7-3.61-6.83-.67-.86.81-3.73.71-5.54.44-2-.29-3.84-1.25-4.33-2.41l-5-6.44-11.68-7.47,2.72-2.36,6.79,4.84Z" transform="translate(-14.36 -139.08)"/><path class="cls-4" d="M650.19,360.15l3.71-1.74c9,5.66-.61,10.27-2.23,14.74-1.74,4.78-8,8.58-13.2,13.71-2.59-7.49-7.48-13.47-1.74-20.1l.58-1.58Z" transform="translate(-14.36 -139.08)"/><path class="cls-14" d="M685.77,324.95l-8.09,1.7-6.79-4.84-2.72,2.36,11.69,7.47-4.18,6.81c-1-7.55-9.08-8.45-16-10.54-2.18-.66-4-2.06-5.94-3.12l-8.43-3.68-2,2.9-3.28-.25,1.69-4.52,1.47-1.38h17.22l1.75-5.11a7.53,7.53,0,0,1,1.45.22c.65,9.1,11.54,6.83,17.84,9.63C683,323.28,684.34,324.16,685.77,324.95Z" transform="translate(-14.36 -139.08)"/><path class="cls-9" d="M536.46,270.85c9,.74,11.9,3.22,12.19,10.5.26,6.69,2.28,7.76,9.68,4.24,6.26-3,12-6.65,17.92-10-3.51,3.62-6.88,7.33-10.56,10.85-4.76,4.55-4.9,9.5-3.34,14.61l-7.5,1.26L549.57,295c-1.38-5.28-2.6-10.58-4.27-15.81-.3-.94-2.66-1.37-3.6-2.32C539.78,275,538.19,272.88,536.46,270.85Z" transform="translate(-14.36 -139.08)"/><path class="cls-21" d="M688.64,217.35l-2.72,1.72-5.86,6.05h0l-4.43,3.75-.14.14c-2.23-3.62-5.17-1.43-8-.59v-5.89l2.89,1,12-15.89-3.5-1c1-8.52,3.13-10.58,11.3-11.21l.2.16c-1.22,1-2.38,2-3.67,2.89-5.88,4.12-5.37,6.27,2,8.29q-.1,3.18-.2,6.36Z" transform="translate(-14.36 -139.08)"/><path class="cls-26" d="M667.51,228.43c2.78-.84,5.73-3,8,.59-9.89,2-12.18,5-9.83,13,1.19,4-.57,5.92-5.48,5.47-1.61-2.83-3.17-5.39-4.54-8-2.32-4.42-6.83,0-10.13-1.32l4.88,3.67-4.27,2.77-6-5.49,5.55-6c4.17-2.29,10.24,4.1,15.72.06Z" transform="translate(-14.36 -139.08)"/><path class="cls-26" d="M643.2,317.86l-1.47,1.38c-3-.74-6-1.89-9-2-1.45-.06-3.05,1.81-4.58,2.81,4,3.66-.76,3.84-3.26,4.92-4.26-3.54-4.59-6.17,1.56-9.14,4.91-2.37,8.66-6.17,13.13-9.48l5.56,3.71-1.9.06Z" transform="translate(-14.36 -139.08)"/><path class="cls-22" d="M624.85,324.94c2.5-1.08,7.29-1.26,3.26-4.92,1.53-1,3.13-2.87,4.58-2.81,3.05.14,6,1.29,9,2L640,323.75l-5.28,6.37Z" transform="translate(-14.36 -139.08)"/><path class="cls-26" d="M643.32,324l2-2.9,8.43,3.68c-.91.81-2.64,1.65-2.58,2.41.14,1.84,1.11,3.64,1.8,5.63C642.8,332.17,642.73,332.11,643.32,324Z" transform="translate(-14.36 -139.08)"/><path class="cls-26" d="M685.33,240.28l3.46-11.83,6.19-2.58,7.92.85c-4.27,2-7.13,3-9.59,4.5-1,.62-1.26,2.07-1.85,3.15-.89,1-1.72,2-2.69,2.92S686.48,239.28,685.33,240.28Z" transform="translate(-14.36 -139.08)"/><path class="cls-22" d="M685.33,240.28c1.15-1,2.36-2,3.44-3s1.8-1.94,2.69-2.92c.65,7.55-2,10.85-11.69,14.53l-1.6-3.91Z" transform="translate(-14.36 -139.08)"/><path class="cls-19" d="M656.57,297.78a1,1,0,0,1,.22,1l-4.28,3.83a19.64,19.64,0,0,0-2.58-3.61c-.94-.87-2.46-1.37-4.75-2.57l1.26-3.33L654,291l2.44,5.91-1.31.31Z" transform="translate(-14.36 -139.08)"/><path class="cls-26" d="M678.17,245l1.6,3.91-12.26,5.42-2-3.22-1.35-1.53Z" transform="translate(-14.36 -139.08)"/><path class="cls-2" d="M586.79,300.65l-.84,6.93,5.38,2.33-.64,2c-3-.52-6.9-.33-8.65-1.75-1.93-1.58-2.3-4.61-2.37-7C579.66,302.5,583.3,301.81,586.79,300.65Z" transform="translate(-14.36 -139.08)"/><path class="cls-24" d="M695,225.87l-6.19,2.58-.16-11.1-.07-4.24,3.22-3.07c0,3.1-.08,4.73,0,6.36s.37,3.27.57,4.91l.94-.26,1.62-4.32C698.73,219.76,694.86,222.82,695,225.87Z" transform="translate(-14.36 -139.08)"/><path class="cls-14" d="M618.6,283.89c-.62-2-2.16-5.46-1.7-5.62a85.7,85.7,0,0,1,11-2.61C630.32,282.13,621.44,281,618.6,283.89Z" transform="translate(-14.36 -139.08)"/><path class="cls-26" d="M654,291l-7.53,2.14q0-5.84,0-11.69l2.59-.5c.58,1.72,2.27,3.85,1.52,5.1C648.56,289.31,651,290.09,654,291Z" transform="translate(-14.36 -139.08)"/><path class="cls-26" d="M694.94,216.72,693.32,221l-.94.26c-.2-1.63-.47-3.27-.57-4.91s0-3.26,0-6.36l-3.22,3.07q.1-3.18.2-6.36l6.17-1.83Z" transform="translate(-14.36 -139.08)"/><path class="cls-26" d="M652.51,302.61l4.28-3.83c4,5.9,4,5.9.32,10.19l-7.46-3.22Z" transform="translate(-14.36 -139.08)"/><path class="cls-2" d="M576.53,292.26v8.46l-2.32.13-.68-8.47Z" transform="translate(-14.36 -139.08)"/><path class="cls-13" d="M597.67,286.14l5.86,4.66,0,0-2.95,1.11-.34.24Z" transform="translate(-14.36 -139.08)"/><path class="cls-26" d="M680.06,225.12l5.86-6.05Z" transform="translate(-14.36 -139.08)"/><path class="cls-26" d="M675.6,228.88l4.43-3.75Z" transform="translate(-14.36 -139.08)"/><path class="cls-17" d="M708.31,334.54a1.7,1.7,0,0,0-.1-.49c0-.07-.22-.1-.34-.14a2.69,2.69,0,0,0,.18.37A2,2,0,0,0,708.31,334.54Z" transform="translate(-14.36 -139.08)"/><path class="cls-18" d="M609.49,295.69l2.29-.66-1.9,1.69A.86.86,0,0,1,609.49,295.69Z" transform="translate(-14.36 -139.08)"/><path class="cls-1" d="M700.93,361.41,700.6,358Z" transform="translate(-14.36 -139.08)"/><path class="cls-26" d="M656.57,297.78l-1.48-.59,1.31-.31A1.71,1.71,0,0,1,656.57,297.78Z" transform="translate(-14.36 -139.08)"/><polygon class="cls-26" points="688.99 85.95 688.94 85.5 688.75 85.93 688.99 85.95"/><path class="cls-1" d="M53.48,184.63c-3.61,4.28-2.25,7.71,3,10.47l-2.79.53-1.54,0c-2.54-3.94-7-3.89-11.71-3.39l1.09-1,.4-2.43.48-.09Z" transform="translate(-14.36 -139.08)"/><path class="cls-5" d="M53.48,184.63l-11.07,4-6.21-3.8,5.31-4.71L44,180l9.58,3.73A1,1,0,0,0,53.48,184.63Z" transform="translate(-14.36 -139.08)"/><path class="cls-5" d="M40.43,192.2c4.69-.5,9.17-.55,11.71,3.39C45.86,198.39,42.27,197.35,40.43,192.2Z" transform="translate(-14.36 -139.08)"/><path class="cls-5" d="M31.55,191.33c-1.76.76-2.95,1.69-3.92,1.57s-1.75-1.29-2.61-2c1-.69,2-1.94,2.94-1.93S30,190.22,31.55,191.33Z" transform="translate(-14.36 -139.08)"/><path class="cls-5" d="M41.88,199.77c-.42-.14-1.08-.21-1.2-.45s.3-.63.48-1c.42.14,1.09.21,1.2.44S42.06,199.44,41.88,199.77Z" transform="translate(-14.36 -139.08)"/><path class="cls-2" d="M44,180l-2.47.16q0-1.74,0-3.47l2.35,2.39A.76.76,0,0,1,44,180Z" transform="translate(-14.36 -139.08)"/><path class="cls-5" d="M41.93,188.74l-.4,2.43Z" transform="translate(-14.36 -139.08)"/><path class="cls-12" d="M466.28,254.07c4.61,4.52,7.88,9.36,6.25,15.4l-4.83-1.13,4.88,14.21c-2.85-3.41-5.67-6.85-8.58-10.22-1.12-1.3-2.48-2.49-3.74-3.72-2,1.55-5.24,2.88-5.75,4.68-1.39,4.86-6,6.35-10.95,8-6,2-11.78,4.14-17.71,6.13-2.47.83-6.09,2.61-7.45,1.92-6.06-3.06-11.41-.16-17.1,0-10.22.22-17,3.91-23.29,9.71-4.2-2.94-7.59-3.08-8.39,1.66l-6.75-1.57-3.22-3.28,3.1-6.21q0-2.34.09-4.67l6.13,3.48a63.27,63.27,0,0,1,0-7.25c.55-4.31,2.76-4.35,7.68-.45,4-1.74,8.57-5.4,11.58-4.74,8.41,1.83,12.57-1.66,18.65-4.77,8.19-4.19,18.26-6.2,27.19-9l6.76-10.33a1.78,1.78,0,0,1,1.17.22l3.14,1Zm-11,6.6-7.09-2.78c-4.13-1.62-8.29.7-5.35,2.18C445.34,261.34,449.62,260.51,455.25,260.66Z" transform="translate(-14.36 -139.08)"/><path class="cls-16" d="M440.89,251.82l-6.77,10.33c-8.93,2.84-19,4.84-27.19,9-6.09,3.11-10.24,6.6-18.65,4.77-3-.66-7.59,3-11.58,4.74-4.93-3.9-7.13-3.86-7.68.45a63.27,63.27,0,0,0,0,7.25l-6.13-3.48c.13-1.17-.34-2.77.48-3.42,4.6-3.7,2.3-6.57-1.59-9l5.68-8,2.88,3.34c1.84-2.23,3.69-4.32,5.3-6.51.73-1,1.81-2.59,1.3-3.24-5.12-6.45,3.8-7.34,6.59-11.38l5.4,5.27,2.67-4.53c2.85,4.55,5.89,7.32,9.25-.22l2.67,4.11c6.32-1.46,4.85-5.54,5.13-9l2.56.08,3.42.19,3.18,7,.09.05,5.83,1.49,1.59.94,4.63,2.29,4.72-1.07Z" transform="translate(-14.36 -139.08)"/><path class="cls-16" d="M544.12,165c5.91-.07,11.85.14,17.72-.29,3.77-.28,7.42-1.5,11.12-2.29l.21,1.28-1.6,1.21,0,0-14.32,8.49,7.84,1.47c-2.05,2.52-4.67,4.56-5.52,7-3.23,9.25-10.21,16-20.06,21.77-6.8,4-11.79,9.82-17.75,14.7-2,1.62-4.18,3.47-6.75,4.16-5.84,1.56-9.8,9.6-5.92,13-1.17,2.28,2.85,6.05-3.32,6.9,0-1.36.47-2.81,0-4.05-2.25-5.77-7.46-11.26-2.33-17.61,0-.05-.3-.29-.46-.44l-7-3c8.17-.38,10.2-3.82,12.19-8.15,3.79-8.24,14.65-11.12,22.89-15.85,3.92-2.25,7.22-3.91,9-7.91s6.06-7.06,9.53-10.86C543.34,172,541,169.2,544.12,165Z" transform="translate(-14.36 -139.08)"/><path class="cls-16" d="M472.54,249.62l-5,3.31c0-3.3,0-6.59,0-10.22-1.86.25-2.79.42-3.74.5-12.23,1-15.25-.35-15.94-7.32l5.15-7.14,2.25,3.75L481.13,230l1-7.69,2.09-.66,3.56,6.74L485,231.62l5.82,2.18-3.09-5.36,3.08-2.46c2,3.44,4,6.87,5.91,10.33,1.14,2.05,2.13,4.16,3.2,6.24l-.1.23c-2-.78-4.86-1.15-5.93-2.41-2.24-2.64-3.6-2.75-7-.87-4.86,2.7-10.47,4.6-16.14,7ZM465.89,234c-.43-.14-1-.46-1.26-.37s-.4.61-.58.94c.43.14,1,.47,1.26.37S465.71,234.35,465.89,234Z" transform="translate(-14.36 -139.08)"/><path class="cls-5" d="M447.82,235.89c.69,7,3.71,8.37,15.94,7.32.95-.08,1.88-.25,3.74-.5,0,3.63,0,6.93,0,10.22l-1.22,1.14L445.19,253l-3.14-1a1.78,1.78,0,0,0-1.17-.22l-6.26,1.39-4.72,1.07L425.28,252l-1.59-.94-5.83-1.49-.09-.05q0-3.44,0-6.89c5.8-.49,12-.47,13-6.6l5,1.91,4.52,5.22Z" transform="translate(-14.36 -139.08)"/><path class="cls-19" d="M411.59,195.46c1.62-3.8,4.46-2.68,6.52-.59a17.28,17.28,0,0,1,3,4.81l-15.52,9.93-12.09,4.75-1.8-1.85-.88.68,2.62,1.21-6.22,2.23-5.39-3.94,1.52-8.42-7.22,7.51-5.31-3.27,4-.31L372,204.9l3.28-3.13,1.59-2.86,7.5-4.3,5.74,3.56a1,1,0,0,0,0,.84l.51,3.52,2.68,2.42h0l3.07,2.4a6.44,6.44,0,0,0,.27,1.13l1.42,1.41,1.54-1,6.09-3.68,3.07-2.71L406,197.69l-.54-2.18,6.13,0,3.58,2.13.8-1.42Z" transform="translate(-14.36 -139.08)"/><path class="cls-27" d="M417.72,242.62q0,3.45,0,6.89l-3.18-7-3.42-.19-2.56-.08-6.15.32-3,0-10.08.79c2.08-7.32,5.09-13.57,15.34-15.85,4.86-1.08,8.91-1.38,12,2.8,1.51,2.05,4.74,3.35,7.19,5Z" transform="translate(-14.36 -139.08)"/><path class="cls-27" d="M499.94,242.55c-1.06-2.08-2.06-4.18-3.2-6.24-1.92-3.46-3.93-6.89-5.91-10.33l12.1-5.66c.16.15.5.39.46.44-5.13,6.35.08,11.84,2.33,17.61.48,1.24,0,2.7,0,4.05Z" transform="translate(-14.36 -139.08)"/><path class="cls-14" d="M417.72,242.62l6.16-7.24,7.68-.69L417,225.9l2.44-2.33c3.41,1.8,7.45,3.18,10.06,5.51,2.76,2.48,4.16,5.86,6.16,8.85l-5-1.91C429.71,242.14,423.51,242.13,417.72,242.62Z" transform="translate(-14.36 -139.08)"/><path class="cls-5" d="M372.13,236.72c-.74-1.2-2.28-2.5-2-3.56.49-2.19,1.92-4.26,3.12-6.69l7.46-.86.69-7c2.32.6,5.45.69,6.75,1.93a6.51,6.51,0,0,1,1.5,5.77c-.19.85-3.82,2.15-5.29,1.79-9-2.24-11.9.6-11,7.21C373.36,235.73,372.54,236.24,372.13,236.72Z" transform="translate(-14.36 -139.08)"/><path class="cls-5" d="M376.07,211.79l7.22-7.51-1.52,8.42,5.39,3.94-5.84,1.41Z" transform="translate(-14.36 -139.08)"/><path class="cls-5" d="M378.26,246.28,375,242.55C379,242.33,380.71,243.23,378.26,246.28Z" transform="translate(-14.36 -139.08)"/><path class="cls-5" d="M356.88,272.17l2.91-3.72Z" transform="translate(-14.36 -139.08)"/><path class="cls-5" d="M356.88,285.11q0-2.58,0-5.15Q356.9,282.53,356.88,285.11Z" transform="translate(-14.36 -139.08)"/><path class="cls-16" d="M399.44,242.64l3,0-1.84,1.83Z" transform="translate(-14.36 -139.08)"/><path class="cls-5" d="M375.19,248.84l2.06-1.45Z" transform="translate(-14.36 -139.08)"/><path class="cls-10" d="M244.06,362.61l-3.16-5.75c.55-3.48-1.25-4-4.82-2.28l-1.28-1.21c.8-5,8-7.75,13.93-5.13,9.14,4.06,17.9,2.85,27.21,0,7-2.14,14.72-3.05,22.12-4.49,6.22-1.21,12.45-2.37,19-3.61l.22,1.32L313,347.22l-1.95,1.24-1.76,2.43c-2.82,1.55-5.38,3.64-8.51,4.57-9.51,2.81-19.18,5.31-28.9,7.63-5.73,1.37-11.68,2.16-15.15,2.79l-12.6,10.85-.29-7.07Z" transform="translate(-14.36 -139.08)"/><path class="cls-5" d="M226.08,315.77l-5-10,6.79-2.53C228.42,307.8,232.44,312,226.08,315.77Z" transform="translate(-14.36 -139.08)"/><path class="cls-9" d="M185.37,271c2.13,6-.4,7.85-7.72,6.31Z" transform="translate(-14.36 -139.08)"/><path class="cls-5" d="M232.14,353.1,228.94,346Z" transform="translate(-14.36 -139.08)"/><path class="cls-5" d="M170.62,277.8l-2.52-6.21Z" transform="translate(-14.36 -139.08)"/><path class="cls-5" d="M222.88,320.35l3.26-4.61Z" transform="translate(-14.36 -139.08)"/><path class="cls-5" d="M207.64,294.25,201.42,292Z" transform="translate(-14.36 -139.08)"/><path class="cls-5" d="M174.65,282.39l-3.69.18.1-2.54Z" transform="translate(-14.36 -139.08)"/><path class="cls-9" d="M176.48,271.66c-.19.33-.28.84-.59.93s-.82-.23-1.25-.38c.19-.33.28-.84.59-.93S176,271.52,176.48,271.66Z" transform="translate(-14.36 -139.08)"/><path class="cls-5" d="M210.5,296.7l-2.86-2.49Z" transform="translate(-14.36 -139.08)"/><path class="cls-5" d="M213.6,303.76q.07-1.25.15-2.5l3.1,2.44Z" transform="translate(-14.36 -139.08)"/><path class="cls-5" d="M213.78,301.29l-3-3.91Z" transform="translate(-14.36 -139.08)"/><path class="cls-5" d="M180.11,284.91l-2.94-1.36Z" transform="translate(-14.36 -139.08)"/><path class="cls-5" d="M227.67,343.65,226,341Z" transform="translate(-14.36 -139.08)"/><path class="cls-5" d="M228.63,344.93l-1.1-1.37Z" transform="translate(-14.36 -139.08)"/><path class="cls-5" d="M177.28,283.65l-1.76-1.1Z" transform="translate(-14.36 -139.08)"/><path class="cls-11" d="M417.83,351a6.66,6.66,0,0,1,1.12-.26c1.38-.26,3.23-.17,4-.84,4.93-4,9.76-8.15,14.33-12.43a78.07,78.07,0,0,0,7.82-8.68c4.68-5.94,9.13-12,13.68-18,4-1.66,7.85-3.46,11.93-4.92,3.57-1.28,7.58-2.54,7.87,2.56-7.07,1.17-19.49,10.42-20.58,15.49-.22,1,.42,2.14.54,3.22a29.65,29.65,0,0,1,.46,5.79c-.23,2.75-.9,5.49-1.2,7.25-1,2.46-2.64,4.26-2.19,5.67,1.84,5.9-2.89,12.74-12.87,17.24,1.62,5.56-.53,8.47-8.85,6.59-3.51-.79-6.23,3.9-10.24,1.12l-5.9-9.58-.55-3.36.2-4.71Z" transform="translate(-14.36 -139.08)"/><path class="cls-25" d="M478.62,308.46c-.3-5.1-4.31-3.84-7.87-2.56-4.08,1.46-8,3.27-11.93,4.92,2.73-2.46,5.36-5,8.21-7.36,3.26-2.72,6.71-5.3,10.08-7.93l7.6-1.17c1.62,1,3.19,2.68,4.86,2.74,3.37.12,6.79-.67,12.17-1.32L496.84,306l-12.51-4.94,2.49,7.38Z" transform="translate(-14.36 -139.08)"/><path class="cls-27" d="M219.66,265c4.73,1.37,4.73,1.37,4.76-4.79l13.69,15.14-3.43.29-9-4.44c-.9-.9-1.82-1.79-2.7-2.7C221.83,267.34,220.75,266.16,219.66,265Z" transform="translate(-14.36 -139.08)"/><path class="cls-6" d="M225.63,271.19l9,4.44c2.38,5.43-4.19,1.52-5.47,3.13L214,273.42C215.88,268.9,221.39,271.33,225.63,271.19Z" transform="translate(-14.36 -139.08)"/><path class="cls-14" d="M229.2,278.76c1.29-1.61,7.85,2.31,5.47-3.13l3.42-.29,3,2.46-3,4.89c-2.4,1.31-2.4,1.31-4.62-2.29l-2.47,6.29C229.71,284,223.64,281.89,229.2,278.76Z" transform="translate(-14.36 -139.08)"/><path class="cls-16" d="M238,282.69l3-4.89,12,3.86-.05,1Z" transform="translate(-14.36 -139.08)"/><path class="cls-25" d="M137.66,244.86a.81.81,0,0,1-.26-1c5.8-5.09,11.59-10.2,17.47-15.24a3.06,3.06,0,0,1,2.19,0c5.35,2.25,8.49-1,12-2.94,4.49-2.46,8.77-5.15,13.1-7.78,10.41-6.32,22.54-4,33.62-2.8,6.92.76,11.64-1.09,16.23-3.36,3.92-1.94,6.09-2.41,9.75,0,2.65,1.75,6.38,2.53,9.63,3.74,6.86-1.5,4.45,3.73,6.27,5.63,2.28,2.39,8.36-3.41,7.73,2.59h0l-6.11,2.34a50.89,50.89,0,0,0-6.21-.06c-2.17.23-5,.38-6.25,1.45-4.37,3.64-8.2,7.67-12.23,11.54-3.17,1.11-6.21,3.6-9.22-.64-.61-.86-5-.12-8.38-.12l-1-4.8c-4.53,0-9.6-1.05-13.3.24-5.92,2.06-10.55.93-15.78-.77-7.62-2.48-12.09-.86-14.15,5.49-1.13,3.48-2.92,4.71-7.34,3.73-7.21-1.6-14.6.47-18.89,5.19Z" transform="translate(-14.36 -139.08)"/><path class="cls-16" d="M137.66,244.86l8.84,2.47c2.44,5.39,7.46,8.61,15.25,10.39,0,1.91,0,4,0,6.12a13.64,13.64,0,0,0-2.87,1.31,31.4,31.4,0,0,0-3,3.07l-.22-2.11-5.78-4q-.05-1.54-.1-3.09l-3.13-4.73h0l-2.85-2.55.14-.14L137.87,247Q137.76,245.91,137.66,244.86Z" transform="translate(-14.36 -139.08)"/><path class="cls-5" d="M155.86,268.22a31.4,31.4,0,0,1,3-3.07,13.64,13.64,0,0,1,2.87-1.31l5.88,7.06c-.47.1-1.11.08-1.38.32-2,1.74-2.25,6.08-6.75,3.93C157.29,274.09,157,270.6,155.86,268.22Z" transform="translate(-14.36 -139.08)"/><path class="cls-7" d="M362.87,299.07l6.75,1.57c.8-4.74,4.2-4.6,8.39-1.66,6.31-5.79,13.07-9.49,23.29-9.71,5.69-.12,11-3,17.1,0,1.37.69,5-1.09,7.45-1.92,5.93-2,11.76-4.17,17.71-6.13,5-1.63,9.56-3.12,10.95-8,.51-1.8,3.75-3.13,5.75-4.68,1.25,1.24,2.61,2.42,3.74,3.72,2.92,3.38,5.73,6.81,8.58,10.23l3,4.72-9.09-.82-43.65,23.63-7.85-2c-.12,5.54,7.57,11.61-3.16,14.53l-.21-4.71h0c-.15-1.91.63-4.87-.62-5.53-3.4-1.8-7.66-2.63-11.59-3.85l-3,.09-24.06,2-6.15-4.66Zm8.57,5c-.17-.33-.24-.85-.54-1s-.84.21-1.27.34c.17.33.24.85.54,1S371,304.22,371.44,304.09Z" transform="translate(-14.36 -139.08)"/><path class="cls-27" d="M475.6,287.27l-3-4.72-4.88-14.21,4.83,1.13,12.06,21.62-1.87.7-4.12-2.08a.64.64,0,0,0-.66-.31l-2.34-2.12Z" transform="translate(-14.36 -139.08)"/><path class="cls-7" d="M475.59,287.27l2.34,2.12Z" transform="translate(-14.36 -139.08)"/><path class="cls-8" d="M240.74,393.2l.75-1.2c.15-.09.44-.19.44-.27a3.18,3.18,0,0,0-.21-.78l-.65-2.45L244,379c1.15,4.58-3,10.25,5.3,14l1.55-8.42,1.31-.11L254,390l1.54.2,1.65-9.6,2.58,3.94,10.72.76a105.06,105.06,0,0,1,9.78-4.79c.36-.14,2.26,2.13,3.45,3.28l-2.13,1.52,1,.52,1.18-2c6.6-1.62,3.91-3.81-.46-6.76l8.86-2.76-6,13-2.21,1.57L275.4,397l-.75-.55-4.5,6.19c-10.85-.1-14.25,1.19-17.51,9.93-1.38,3.69-2.85,5.16-7.34,5.7-1.21.15-2.14,1.69-4.54,3.73,0-9.31,0-17.5,0-25.69Q240.75,394.77,240.74,393.2Z" transform="translate(-14.36 -139.08)"/><path class="cls-11" d="M283.82,388.84l2.21-1.57Z" transform="translate(-14.36 -139.08)"/><path class="cls-18" d="M251.41,215.51c-3.25-1.21-7-2-9.63-3.74-3.66-2.42-5.83-1.95-9.75,0-4.59,2.27-9.31,4.13-16.23,3.36-11.08-1.22-23.21-3.52-33.62,2.8-4.33,2.63-8.61,5.32-13.1,7.78-3.53,1.93-6.67,5.18-12,2.94a3.06,3.06,0,0,0-2.19,0c-5.88,5-11.66,10.15-17.47,15.24l-2.91-2.63a.91.91,0,0,0-.35-1c-3-4.39-4.54-8.75.47-13,5.32-.82,11.49-.61,15.77-2.69,7.73-3.77,14.34-8.91,21.76-13.7L171,209.57l9.15-7,6.1-4.73,15.2,3.51,0,0,.63,6.87c4.2-4.78,7.42-6.17,9.18-2.72l8.47.55,5.64,5.73v-7l5.3-4.41,0-.05-.22-2.57-3.09-2.37,2.24-8c7.35-1,13.42.14,17.11,5.66,2.14,3.2,4.48,3.07,7.7.77,1-.73,3.22-.49,4.88-.69l9.06,9.63c-4.19,3.4-13,3.58-12.15,10.5Z" transform="translate(-14.36 -139.08)"/><path class="cls-13" d="M219.72,206.09l-8.47-.55c-1.76-3.45-5-2.06-9.18,2.72l-.63-6.87,2-.46-.38-.44-1.61.87-15.2-3.51c-1.17-7.28,5-10.8,11.83-14.14,3-1.46,5.43-3.63,8.11-5.48l-1.39-1.37-8.08-.3-6-5.9-.39-2.19,1.58-3.39,3.61.23c-1.15,7.26,10.26,5.27,12.44,10.08l5.48-2.22c-3.09-3.56-13.83-2.14-8.62-9.23l21-1.24,6.12,2.2-5.36.62-.77,6.31c-9-.64-2.34,8-9.47,8.35l5.7,3.82-7,1.95c-5.7-1.78-11.4-3-16.15,1.36-1.84,1.71-5.11,4.16-4.54,5.38,1,2.14,4.1,4.17,7,5.21,5.39,2,11.3,3,16.82,4.8C219.12,203,219.22,204.91,219.72,206.09Z" transform="translate(-14.36 -139.08)"/><path class="cls-25" d="M225.83,171.82l.77-6.31,5.36-.62c4.11,1.25,8.51,2.13,12.26,3.85,6.15,2.82,11.87,6.19,18.5,9.71l-3.34,3.16c-1.21.13-3.29,0-3.49.41-3.41,7-5.1,7.94-12.86,4.1-5.49-2.72-10.06-3.84-15.47.17l-1.11-1.86,13-7.2-.74-1.62-5.94.76Z" transform="translate(-14.36 -139.08)"/><path class="cls-14" d="M225.83,171.82l6.92,4.55,5.94-.76.74,1.62-13,7.2,1.11,1.86c5.4-4,10-2.89,15.47-.17,7.76,3.84,9.45,2.93,12.86-4.1.2-.42,2.29-.29,3.49-.41l-.12,11.6c-1.66.2-3.85,0-4.88.69-3.22,2.29-5.56,2.43-7.7-.77-3.69-5.52-9.76-6.7-17.11-5.66l-2.24,8L221.78,187l-.84,1.23-5.87-2.28,7-1.95-5.7-3.82C223.49,179.83,216.79,171.17,225.83,171.82Z" transform="translate(-14.36 -139.08)"/><path class="cls-9" d="M254.66,147.26c7.91.14,13,5.22,10.68,10.65-8.52-.34-17.48,1.7-25.26-2.74l13.81-5Z" transform="translate(-14.36 -139.08)"/><path class="cls-26" d="M210.53,153.12l-3.82,5.74,19-1.07-.71,3.1-26.8-.74c-1.43-.78-2.87-2.22-4.3-2.22-4.27,0-4.76-1.8-4.47-4.33l5.87,2.11c4,1.44,7.89,2.1,10.76-1.49q.71,0,1.41,0l1.61-1.13Z" transform="translate(-14.36 -139.08)"/><path class="cls-25" d="M256.15,213.33c-.9-6.92,8-7.09,12.15-10.5l3.27,1.94q-.08,3-.16,6C266.46,212.11,262.18,215.88,256.15,213.33Z" transform="translate(-14.36 -139.08)"/><path class="cls-24" d="M254.66,147.26l-.76,2.87-13.81,5-5.11-2,.31-2.27,17.82-3.74Z" transform="translate(-14.36 -139.08)"/><path class="cls-23" d="M198.22,160.16l26.8.73.82,1.79-21,1.24-6.12-.17-4.9-1.46Z" transform="translate(-14.36 -139.08)"/><path class="cls-12" d="M292.61,144.14l15.43-.6-.09.32c-6.71,7.28-6.71,7.28,1.87,10.17l-2.31,4a40,40,0,0,0,6.35,2.08c4,.65,11.09-1.1,5.9,5.55-.42.54,2,3.21,3.73,3.74,2.17.67,4.95.15,7.46.15l4.69,2.54-3.23,2.6-3-.34c-17.55,3.14-26.81-6.21-36.48-14.67-4.23-3.7-7.83-7.83-11.94-12Z" transform="translate(-14.36 -139.08)"/><path class="cls-25" d="M253.11,147.12l-17.82,3.74-8.56-3.31,8.32-3.89,18.38,1.16Z" transform="translate(-14.36 -139.08)"/><path class="cls-5" d="M329.44,174.34l3,.34-11.35,4.14Z" transform="translate(-14.36 -139.08)"/><path class="cls-5" d="M405.43,195.51l.54,2.18c-13,.4-14.7-.92-11.08-8.63,3.53.88-1.52,9.56,7.66,5.16Z" transform="translate(-14.36 -139.08)"/><path class="cls-5" d="M390.09,198.18l-5.74-3.56,2.94-3.7c1,1.08,2.4,2.07,2.86,3.27S390.15,196.84,390.09,198.18Z" transform="translate(-14.36 -139.08)"/><path class="cls-5" d="M405.66,205.22l-6.09,3.68a48.19,48.19,0,0,1,3.22-5c.29-.36,1.79-.14,2.73-.19Z" transform="translate(-14.36 -139.08)"/><path class="cls-2" d="M390.6,202.53l-.51-3.52c3,.15,6.65-.1,3.24,3.54Z" transform="translate(-14.36 -139.08)"/><path class="cls-5" d="M380.42,192.46a13.52,13.52,0,0,1-2.57.53c-.65,0-1.32-.36-4.1-1.2l6.41-.78Z" transform="translate(-14.36 -139.08)"/><path class="cls-5" d="M396.37,204.9l.79-3,1.94.53-2.73,2.51Z" transform="translate(-14.36 -139.08)"/><path class="cls-5" d="M396.33,207.33l-3.07-2.4,3.11,0h0Z" transform="translate(-14.36 -139.08)"/><path class="cls-5" d="M376.85,198.91l-1.59,2.86Z" transform="translate(-14.36 -139.08)"/><path class="cls-5" d="M390.6,202.53l2.74,0q0,1.2-.05,2.4Z" transform="translate(-14.36 -139.08)"/><path class="cls-2" d="M405.66,205.22l-.14-1.5,3.21-1.22Z" transform="translate(-14.36 -139.08)"/><path class="cls-5" d="M398,209.88l-1.42-1.41Z" transform="translate(-14.36 -139.08)"/><path class="cls-5" d="M417.44,353.19l-.2,4.71C413.14,356.23,413.1,354.65,417.44,353.19Z" transform="translate(-14.36 -139.08)"/><path class="cls-5" d="M344.57,183.74l4.94,2.15-8.55,5.5-1.7-1.41Z" transform="translate(-14.36 -139.08)"/><path class="cls-5" d="M341.71,179.06l2.85,4.67-5.79-1.58Z" transform="translate(-14.36 -139.08)"/><path class="cls-5" d="M339.66,174.18l4.92-2.1Z" transform="translate(-14.36 -139.08)"/><path class="cls-5" d="M331.86,179.89c-.18.33-.28.84-.58.93s-.82-.23-1.25-.37c.18-.33.27-.84.58-.93S331.43,179.74,331.86,179.89Z" transform="translate(-14.36 -139.08)"/><path class="cls-7" d="M311.09,348.46l1.95-1.24Z" transform="translate(-14.36 -139.08)"/><path class="cls-2" d="M219.68,322.6q0,2.35,0,4.7l-4-2.07Z" transform="translate(-14.36 -139.08)"/><path class="cls-5" d="M218.56,315.1c-.42-.14-1.08-.21-1.2-.45s.3-.63.48-1c.42.14,1.08.21,1.2.44S218.74,314.78,218.56,315.1Z" transform="translate(-14.36 -139.08)"/><path class="cls-5" d="M211.66,320.73l1.27.42c-.18.33-.27.84-.57.93s-.82-.23-1.25-.37Z" transform="translate(-14.36 -139.08)"/><path class="cls-5" d="M149.85,262.12l5.78,4C152,266.28,148.86,266,149.85,262.12Z" transform="translate(-14.36 -139.08)"/><path class="cls-5" d="M171,282.58q0,2.35,0,4.7c-1-.88-2.36-1.67-2.75-2.68C168,284.17,170,283.27,171,282.58Z" transform="translate(-14.36 -139.08)"/><path class="cls-5" d="M146.63,254.3l3.13,4.73h-3.16Z" transform="translate(-14.36 -139.08)"/><path class="cls-21" d="M190.7,170.64l6,5.9,8.08.3,1.39,1.37c-2.69,1.85-5.11,4-8.11,5.48-6.87,3.35-13,6.86-11.83,14.14l-6.1,4.73-11.58-4.15c-4.41,4.08-11.15,7.44-19.3,10.08-6.83,2.21-11,9.27-16.4,14.18l-1.68-1.3c.71-5.09-5.14-6.09-8.81-8.45a1.09,1.09,0,0,0,0-.93l.87-1.92c4-.6,8-1.08,11.85-1.85a8,8,0,0,0,3.49-1.9c4.05-3.54,7.36-7.79,12.1-10.6,5.82-3.45,11.35-6.39,12.4-12.65.56-3.36,2.66-6.56,3.86-9.37l7.15-.63,4.76,1.14Z" transform="translate(-14.36 -139.08)"/><path class="cls-13" d="M132.82,222.68c5.37-4.91,9.57-12,16.4-14.18,8.15-2.64,14.89-6,19.3-10.08l11.58,4.15-9.15,7,1.19,1.29c-7.42,4.79-14,9.94-21.76,13.7-4.29,2.09-10.45,1.87-15.77,2.69l-1.6-3.55A5.9,5.9,0,0,1,132.82,222.68Z" transform="translate(-14.36 -139.08)"/><path class="cls-5" d="M122.33,212.93c3.68,2.36,9.53,3.36,8.81,8.45l-3.72-1.49-7.33,3Z" transform="translate(-14.36 -139.08)"/><path class="cls-5" d="M123.23,210.08l-.87,1.92-3.19-2.38,1.07-.87,2,.61q.16.61,1,.63Z" transform="translate(-14.36 -139.08)"/><path class="cls-14" d="M259.29,226.08l6.11-2.34Z" transform="translate(-14.36 -139.08)"/><path class="cls-5" d="M217.53,339.18l2.16,3.64-1.7.67-2.61-3.36Z" transform="translate(-14.36 -139.08)"/><path class="cls-5" d="M399.42,308.52c3.92,1.22,8.19,2,11.59,3.85,1.25.67.48,3.62.62,5.53-2.15-1.59-4.33-3.15-6.44-4.77S401.34,310.06,399.42,308.52Z" transform="translate(-14.36 -139.08)"/><path class="cls-2" d="M387.24,313.19h1.52c.85,2.17,4,4.69-1.52,5.87Q387.24,316.12,387.24,313.19Z" transform="translate(-14.36 -139.08)"/><path class="cls-5" d="M225.21,427c-.19.33-.28.83-.59.93s-.82-.23-1.24-.38c.19-.33.28-.84.58-.93S224.78,426.87,225.21,427Z" transform="translate(-14.36 -139.08)"/><path class="cls-5" d="M128.31,237.85v5.21l-3.18-.47,3.18-4.73Z" transform="translate(-14.36 -139.08)"/><path class="cls-2" d="M271.44,226.06l-3-2.32c2.47-3.86,5-3.64,7.71-.12Z" transform="translate(-14.36 -139.08)"/><path class="cls-5" d="M383.55,316.38l-.55,1c-.42-.14-1.08-.21-1.2-.44s.3-.64.48-1Z" transform="translate(-14.36 -139.08)"/><path class="cls-4" d="M122.52,169.88l2.31-.1,3.5,2.18L139.46,179c.18,8.83-5.71,15.7-20.82,17l3,1.66-5.36,7.15-1,.89L97.86,193.09l-3.07-2.29,0,0,6-3.37c-1.58-6.06,4-10,9.24-14.08Z" transform="translate(-14.36 -139.08)"/><path class="cls-4" d="M122.28,209.35l-2-.61-1.07-1.49.08-.07,4.43,1.17Z" transform="translate(-14.36 -139.08)"/><path class="cls-4" d="M119.17,207.26l-3.92-1.52,1-.89,3,2.34Z" transform="translate(-14.36 -139.08)"/><path class="cls-17" d="M94.79,190.8l3.07,2.29-3.08.09.1-.57Z" transform="translate(-14.36 -139.08)"/><path class="cls-5" d="M143.79,251.75l2.85,2.55Z" transform="translate(-14.36 -139.08)"/><path class="cls-7" d="M236.08,354.58c3.56-1.71,5.37-1.2,4.82,2.28Z" transform="translate(-14.36 -139.08)"/><path class="cls-20" d="M94.79,190.8l.1,1.81a4,4,0,0,0-1.08.25l-9.81-2,.22-.19,10.55.08Z" transform="translate(-14.36 -139.08)"/><path class="cls-20" d="M84,190.89l-2.64.1-.33-.28,1.23-1.79,2,1.78Z" transform="translate(-14.36 -139.08)"/><path class="cls-11" d="M241.72,391a3.18,3.18,0,0,1,.21.78c0,.09-.28.18-.44.27A.76.76,0,0,1,241.72,391Z" transform="translate(-14.36 -139.08)"/><path class="cls-7" d="M576.09,163.69c4.74-1.5,9.18-2.86,13.09,1.54,1.36,1.53,4.66,2,8.17,3.45L602,163l8.38,16.74c-.4.27-1.11,1.17-1.85,1.19-15.73.25-17.85,10-21.91,18.5A7.39,7.39,0,0,1,585,202c-6,5.18-11.72,10.69-18.41,15.31-6.14,4.24-12.35,8.56-21.72,9.09-5.24.29-10.21,3-15.39,4.5-3.17.9-6.49,1.5-9.74,2.23,1.58-2.14,2.49-5,4.85-6.3,8.14-4.49,16.9-8.31,25.2-12.63,10.48-5.46,22.45-10.2,22.82-21.89.25-7.84,5.57-15.92-1.77-23.51-.72-.75.41-2.57.68-3.89l0,0Z" transform="translate(-14.36 -139.08)"/><path class="cls-12" d="M571.53,164.9c-.27,1.32-1.4,3.14-.68,3.89,7.33,7.6,2,15.68,1.77,23.51-.37,11.69-12.34,16.43-22.82,21.89-8.3,4.32-17.06,8.14-25.2,12.63-2.36,1.3-3.27,4.16-4.85,6.3l-10.68,2.37c-3.88-3.44.08-11.48,5.92-13,2.57-.69,4.78-2.54,6.75-4.16,6-4.89,10.95-10.7,17.75-14.7,9.85-5.79,16.82-12.52,20.06-21.77.84-2.41,3.46-4.45,5.52-7l-7.84-1.47Z" transform="translate(-14.36 -139.08)"/><path class="cls-7" d="M472.54,249.62l-1.74-3.11c5.67-2.4,11.28-4.3,16.14-7,3.39-1.89,4.75-1.78,7,.87,1.07,1.26,3.9,1.64,5.93,2.41-3.2,1.82-6.65,3.44-9.52,5.53s-5,4.57-8,7.32l-3.75-1.29h0C479.29,250.67,477.26,249.11,472.54,249.62Z" transform="translate(-14.36 -139.08)"/><path class="cls-14" d="M500.17,259l12.77,5.9-11,5.66-6.52-14.09.7.06.68-.12,1.75.27,1.31,1.38A.86.86,0,0,0,500.17,259Z" transform="translate(-14.36 -139.08)"/><path class="cls-25" d="M637,167.24l1.52,2.35-5.32-.44-.17-1Z" transform="translate(-14.36 -139.08)"/><path class="cls-7" d="M478.62,254.33,478,258.4l-2.44-.61,3.09-3.46Z" transform="translate(-14.36 -139.08)"/><path class="cls-12" d="M517.64,236.35c-.19.33-.28.84-.59.93a1.46,1.46,0,0,1-1.18-.4c-.12-.24.21-.82.52-.92S517.21,236.21,517.64,236.35Z" transform="translate(-14.36 -139.08)"/><path class="cls-25" d="M627.46,165.37l1.28.42c-.18.33-.27.84-.58.93s-.83-.23-1.25-.37Z" transform="translate(-14.36 -139.08)"/><path class="cls-7" d="M595.91,158l3,0-1.53,1.69Z" transform="translate(-14.36 -139.08)"/><path class="cls-12" d="M576.09,163.69l-4.54,1.19,1.6-1.21Z" transform="translate(-14.36 -139.08)"/><path class="cls-25" d="M496.81,256.45l-.68.12-.7-.06Z" transform="translate(-14.36 -139.08)"/><path class="cls-25" d="M499.87,258.1l-1.31-1.38Z" transform="translate(-14.36 -139.08)"/><path class="cls-13" d="M667.51,228.43l-6.14,4.72c-2.43-3.45-1.77-6,1-9.72,3.21-4.26,8.86-8.52,5.82-15.13-1-2.29,3.65-6.15,6.06-9.81-4.85-3.25-3.88-6.39,2.08-9.53,1.87-1,2.48-3.57,3.33-5.51,2.67-6.05,3-13.13,12.22-16.23l6.38.31.18.88-3.73,1.3c-1.61,6.74-3.15,12.55-4.33,18.41-.48,2.39-.16,4.87-.2,7.31-8.17.62-10.26,2.69-11.3,11.21l3.5,1-12,15.89-2.89-1Z" transform="translate(-14.36 -139.08)"/><path class="cls-19" d="M475.57,188.42c2.76-1.56,5.32-3.51,8.4-4.48,1.13-.35,3.48,1.63,5.28,2.55l-.62,1.93H475.57Z" transform="translate(-14.36 -139.08)"/><path class="cls-14" d="M471,183.8l-4.48-2.8c1.53-.66,3-1.67,4.61-1.9a58.66,58.66,0,0,1,7.51-.12Z" transform="translate(-14.36 -139.08)"/><path class="cls-6" d="M330.93,169.54c-2.52,0-5.29.52-7.46-.15-1.71-.53-4.15-3.2-3.73-3.74,5.19-6.65-1.89-4.9-5.9-5.55A40,40,0,0,1,307.5,158l2.31-4c-8.58-2.89-8.58-2.89-1.87-10.17H324v8.94l13.43.63.32,1-4.49,1.87C337.09,161.06,336.4,165.6,330.93,169.54Z" transform="translate(-14.36 -139.08)"/><path class="cls-6" d="M343.85,164.22l-4.28.43-.27-1.45,4.33-.32Z" transform="translate(-14.36 -139.08)"/><path class="cls-17" d="M84.22,190.71l-2-1.78L81,190.72l-6.92.3c5.13-5.87,10-11.67,15.26-17.27.95-1,3.34-1.22,5.07-1.8L110,173.34c-5.22,4.08-10.82,8-9.24,14.08l-6,3.37Z" transform="translate(-14.36 -139.08)"/><path class="cls-19" d="M512.1,169.6l.48.23-.43-.26Z" transform="translate(-14.36 -139.08)"/><path class="cls-13" d="M210.53,153.12h-1.43l-1.61,1.13q-.71,0-1.41,0l-15.31-3.4a1.78,1.78,0,0,0-1.15-.14l-1.55-2.11,3.39-.15c5.23.68,10.44,1.48,15.7,1.92,1,.09,2.25-1.26,3.39-1.94h0C213.58,150,215.65,151.57,210.53,153.12Z" transform="translate(-14.36 -139.08)"/><path class="cls-13" d="M210.55,148.41,208.23,147l.49-.38,1.84,1.78Z" transform="translate(-14.36 -139.08)"/><path class="cls-22" d="M119.25,207.19l-3-2.34,5.36-7.15-3-1.66c15.1-1.33,21-8.2,20.82-17L128.33,172h16.21l-2.23-4.62-10.66.79-3-2.87,9.08-3.48,5.81-.25,20.71,4.92,4.83-4,6.52,9.43-1.49,1.18-7.15.63c-1.2,2.81-3.3,6-3.86,9.37-1,6.26-6.58,9.2-12.4,12.65-4.75,2.81-8.05,7.06-12.1,10.6a8,8,0,0,1-3.49,1.9c-3.9.77-7.89,1.25-11.85,1.85l0-.1.44-1.62Z" transform="translate(-14.36 -139.08)"/><path class="cls-24" d="M189.63,150.69a1.78,1.78,0,0,1,1.15.14l-1.32,2.78c-.29,2.53.19,4.35,4.47,4.33,1.43,0,2.87,1.44,4.3,2.22l-4.45,2.13-1.88,2.78-1.58,3.39-4.19-.07,2.95-3.91-6-2.13-1.5-3.45,2.89-10.24Z" transform="translate(-14.36 -139.08)"/><path class="cls-26" d="M164.76,156.72l6.14,1.31-.26,2c-7.35.11-14.71.4-22,.17-1.26,0-2.4-2.32-3.6-3.56,1.59-.11,3.37-.62,4.74-.25C154.76,157.75,159.65,159.16,164.76,156.72Z" transform="translate(-14.36 -139.08)"/><path class="cls-26" d="M183.11,162.34l6,2.13-2.95,3.91-10.9-3.09Z" transform="translate(-14.36 -139.08)"/><path class="cls-23" d="M184.5,148.65l-2.89,10.24L177,154.36l-1.62-2.49Z" transform="translate(-14.36 -139.08)"/><path class="cls-24" d="M170.63,160l.26-2,.11-2.56,7.54,2.31,0,1.82Z" transform="translate(-14.36 -139.08)"/><path class="cls-24" d="M175.38,151.86l1.62,2.49-4.52-2.4Z" transform="translate(-14.36 -139.08)"/><path class="cls-24" d="M143.51,161.53l-5.81.25-.23-1.58,2.59-1.1Z" transform="translate(-14.36 -139.08)"/><path class="cls-26" d="M174.08,173.08l1.49-1.18,3.68-1.08-.4,3.4Z" transform="translate(-14.36 -139.08)"/><path class="cls-27" d="M600.42,153.24l7.2,1.59L600.69,157Q600.56,155.1,600.42,153.24Z" transform="translate(-14.36 -139.08)"/><path class="cls-27" d="M588.24,151l6.35,2Z" transform="translate(-14.36 -139.08)"/><path class="cls-14" d="M131.64,168.13l10.66-.79,2.23,4.62H128.33l-3.5-2.18Z" transform="translate(-14.36 -139.08)"/><path class="cls-18" d="M600.55,291.93l2.95-1.11Z" transform="translate(-14.36 -139.08)"/><path class="cls-16" d="M455.25,260.66c-5.63-.16-9.92.67-12.44-.59-2.95-1.48,1.22-3.8,5.35-2.18Z" transform="translate(-14.36 -139.08)"/><path class="cls-16" d="M442.05,252l3.14,1Z" transform="translate(-14.36 -139.08)"/><path class="cls-27" d="M425.28,252l4.63,2.29Z" transform="translate(-14.36 -139.08)"/><path class="cls-27" d="M417.85,249.56l5.83,1.49Z" transform="translate(-14.36 -139.08)"/><path class="cls-6" d="M411.17,242.36l3.42.19Z" transform="translate(-14.36 -139.08)"/><path class="cls-6" d="M487.76,228.44l3.09,5.36L485,231.62l2.73-3.18Z" transform="translate(-14.36 -139.08)"/><path class="cls-6" d="M465.89,234c-.19.33-.28.84-.59.94s-.83-.23-1.26-.37c.18-.33.28-.85.58-.94S465.46,233.88,465.89,234Z" transform="translate(-14.36 -139.08)"/><path class="cls-5" d="M411.59,195.46l4.36.72-.8,1.42-3.58-2.13Z" transform="translate(-14.36 -139.08)"/><path class="cls-5" d="M393.39,214.41l-2.62-1.21.88-.68,1.8,1.85Z" transform="translate(-14.36 -139.08)"/><path class="cls-12" d="M371.44,304.09c-.43.13-1,.44-1.27.34s-.37-.62-.54-1c.43-.13,1-.44,1.27-.34S371.27,303.75,371.44,304.09Z" transform="translate(-14.36 -139.08)"/><path class="cls-11" d="M283.66,383.79l-1.18,2-1-.52,2.13-1.52Z" transform="translate(-14.36 -139.08)"/><path class="cls-5" d="M215.07,185.93l5.87,2.28.84-1.23,5.54,8.43,3.09,2.37.22,2.57,0,.05-6.95-.22,1.65,4.64v7l-5.64-5.73c-.5-1.17-.6-3.08-1.57-3.39-5.52-1.77-11.43-2.85-16.82-4.8-2.86-1-6-3.07-7-5.21-.57-1.23,2.7-3.68,4.54-5.38C203.67,182.89,209.36,184.16,215.07,185.93Z" transform="translate(-14.36 -139.08)"/><path class="cls-14" d="M225.36,204.83l-1.65-4.64,6.95.22Z" transform="translate(-14.36 -139.08)"/><path class="cls-14" d="M230.63,200.37l-.22-2.57Z" transform="translate(-14.36 -139.08)"/><path class="cls-14" d="M198.68,163.75l6.12.17c-5.21,7.09,5.53,5.66,8.63,9.23l-5.48,2.22c-2.18-4.81-13.59-2.82-12.44-10.08Z" transform="translate(-14.36 -139.08)"/><path class="cls-21" d="M198.68,163.75l-3.18,1.54-3.61-.23,1.88-2.78Z" transform="translate(-14.36 -139.08)"/><path class="cls-18" d="M201.41,201.36l1.61-.87.38.44-2,.46Z" transform="translate(-14.36 -139.08)"/><path class="cls-23" d="M189.46,153.61l1.32-2.78,15.31,3.4c-2.87,3.59-6.73,2.93-10.76,1.49Z" transform="translate(-14.36 -139.08)"/><path class="cls-18" d="M207.5,154.25l1.61-1.13Z" transform="translate(-14.36 -139.08)"/><path class="cls-21" d="M123.68,208.36l-.44,1.62q-.81,0-1-.62Z" transform="translate(-14.36 -139.08)"/></svg>