<svg id="Reference" xmlns="http://www.w3.org/2000/svg" viewBox="0 0 231.29 168.02"><defs><style>.cls-1{fill:#231f20;stroke:#231f20;stroke-miterlimit:10;}</style></defs><title>KurkeLogo</title><path class="cls-1" d="M323,196.48c-11.32-10.47-14.63-23.54-13.45-38.8,7.78,5.86,15.35,11.46,22.82,17.19q29,22.26,58,44.58c2.85,2.19,6,4,8.75,6.29,9.06,7.31,10.4,14.63,4.33,24.7-2.58,4.29-3.87,8.62-2.85,13.6,1.34,6.52,6.93,9.47,13.39,7.52s12.75-3.32,19.46-.49c4.53,1.91,9.83,1.89,13.32-1.9,3.76-4.07,4-9.46,1.73-14.63a64.63,64.63,0,0,0-3.65-6.88c-5.63-9.58-2.38-14.85,5-21,11.72-9.84,23.9-19.13,36-28.5,10-7.77,20.23-15.36,30.4-23,7.6-5.68,15.28-11.24,22.83-16.79,2.17,14.19-1.88,27.11-13.18,38.84l11.21-5.81c.18,13.81-5.83,23.69-16,31.79l5.32-1.5,5.72-1.62c-2.12,12.83-8.68,21.77-20.1,27.3L527,245.8c-2.94,12.12-12.2,17-21.88,22.18l14.75.91C518.56,276.4,508,285.5,490,285.32l19,5.83c-9.91,8.65-20.79,11.5-34.35,8.74l14.15,11.52c-12.11,4.78-23.19,4.8-34.21-3.34L459,324.18c-8.06-.3-14.28-3.68-20-8.68-9.6,5.78-19.32,5.58-29.14-.09-5.19,5.84-11.69,8.61-20.12,8.82l5.94-16.52c-11.5,8-22.93,8.82-35.59,3.59L375.41,300c-14.15,2.61-23.85.06-34.83-8.67L357.22,286c-11.53-1.88-22.4-4-28-16.85l16.33-1.26c-10.89-3.78-19-10.11-22.79-22.15l14.37,1.59c-3.16-2.33-6.48-4.21-9-6.84a41.15,41.15,0,0,1-6.79-9.43c-1.75-3.31-2.64-7.08-4.13-11.26L330,223.61c-10.62-8.76-18.86-17.65-17.89-31.94Zm83.64,79.7c-7.36-4.26-10.23-7.64-10.15-14.71A29,29,0,0,1,400,248.9c4.92-9.4,4.16-14.54-4.31-20.91-2.75-2.07-5.68-3.91-8.39-6-7.85-6.15-15.63-12.4-23.43-18.6l-1.42.68c0,4.25-.57,8.59.11,12.72,1.82,10.94,11.18,16.09,18.61,22.52-10.13,19.43.1,47.63,17.56,51.46,3.17-4.12,1.9-7-2.38-9.26a28,28,0,0,1-3.89-2.7c-.28-.21-.35-.7-.57-1.21l3.14-1.69,7.69,5.32Zm78.89-72.59c-11.26,8.8-22.4,17.27-33.25,26.09-6.45,5.25-7.08,10.37-3.1,17.62.62,1.14,1.29,2.25,1.91,3.4,5.85,10.79,2.5,20.54-8.85,25.36l5.42,5,7.15-5.41,2.65,2.35c-1.71,1.64-3,3.6-4.85,4.49-4.71,2.28-3.22,5.16-1.45,8.54,9.48-3.62,15.11-11,18.72-19.5a37.22,37.22,0,0,0-1.16-32.38C485.39,226.38,490.16,216.42,485.56,203.58Zm49.73-37c-15.26,11.2-30,22-44.66,32.87a3.61,3.61,0,0,0-1,2.89c.49,3.68,1.24,7.32,1.94,11.23a24.69,24.69,0,0,0,3.63-1.6c6.85-4.31,13.74-8.55,20.42-13.11a61.9,61.9,0,0,0,10.62-8.72A32.93,32.93,0,0,0,535.29,166.54Zm-221.35-.49c-.09,1.59-.17,2.26-.16,2.94.11,9,5,15.71,10.59,22,9,10.15,21.74,15,32.73,22.39.17.11.52-.06.49-.05.54-3.5,1.25-6.9,1.48-10.32a5.45,5.45,0,0,0-1.46-4.12c-8-6.17-16.15-12.1-24.24-18.14C327.06,176,320.78,171.22,313.93,166.05ZM430.63,297.54c-4.94,4.69-4.88,4.61-10.29,1-.79-.53-2.42.33-3.67.35-2.59,0-5.53.66-7.68-.33-3.47-1.6-3.63-5.46-1.29-10.56-3.23-1.46-3.33-1.42-4.12,2-2.77,11.77,4.5,22.77,17,25.3,9.93,2,17.59-2.37,23.27-9.92,4.17-5.55,3.64-12.19,1.76-18.94l-4.72,1c3.69,6.09,3.66,7.22.08,10.68C438.24,300.69,434.88,300.55,430.63,297.54Zm-107.21-71.6c3.8,9.88,10.1,15.66,19.6,18.87a134.35,134.35,0,0,0,30.13,6.4l2.56-10.34ZM474.16,240.8l2.7,10.58c4-.66,7.91-.94,11.61-2,8.26-2.37,16.76-4.35,24.51-7.92,8.38-3.87,11.94-9.28,12.88-15.45Zm58.6-42.35c-14.08,6.92-27.53,13.52-41,20.16a4.39,4.39,0,0,0-1.84,1.65c-2.29,4.18-4.47,8.41-6.69,12.62l.32,1c11.31-4.85,22.73-9.48,33.91-14.62C526.11,215.35,530.33,207.8,532.77,198.45Zm-215.63-.22-.61.72a27.06,27.06,0,0,0,2,4c3.44,4.88,6.09,11,10.72,14.2,7.07,4.89,15.48,7.9,23.45,11.39,4.28,1.87,8.85,3.08,13.47,4.65-2.24-4-4.17-7.62-6.34-11.12a10.52,10.52,0,0,0-3.56-3.87c-10.2-5.31-20.51-10.41-30.77-15.6C322.65,201.16,319.9,199.68,317.13,198.23Zm89.22,85.3c9.66.72,14.86,6.37,18.89,14.25,3.1-8.39,8.4-13.51,17.28-14.72-4.95-7.23-11.47-10-18.89-9.58C417,273.89,410.69,276,406.35,283.52ZM373.78,264.6l-1-9.14-43.39-4.86C335.65,263.54,354.09,266.63,373.78,264.6Zm102.34,0c21.16,2.71,39.67-3.28,44.06-14.11l-43.08,5Zm-4.79,14.06c17.9,4.86,36.59,3.48,41.3-6.28l-37.13-3.27Zm-135.14-6.14c4.6,9.3,29.08,11.28,42.18,5.81l-3.76-9.29Zm126.41,16.82c11.81,8.61,26.81,10.62,36.77,3-7.87-2.48-15.67-4.95-23.49-7.38-8-2.49-8-2.47-13.27,3.94C462.53,289.06,462.59,289.24,462.59,289.39Zm-75.8-.24a39.85,39.85,0,0,0-3.84-4.39c-.89-.77-2.44-1.61-3.38-1.34-9.7,2.81-19.33,5.85-29.4,9C360.54,299.76,375.32,298.36,386.79,289.15ZM451.22,296c5.11,11.47,16.06,16.71,29.08,13.58l-22-17.34Zm-52.49,0c-7.94-4.08-7.92-4.06-14.46,1.54-2.63,2.26-5.35,4.41-8,6.64-2.11,1.78-4.18,3.63-6.52,5.67C381.51,313.08,395.8,305.07,398.73,296ZM443,313.16l9.62,6.36.87-1.06-4.36-13.31Zm-46.52,5.32,1,1.12,9.26-6.49-5.88-8c-.57,1.62-1,2.82-1.41,4C398.44,312.27,397.47,315.38,396.49,318.48Zm12.75-27.12-.69,1.31c1.19,1.4,2.15,3.36,3.67,4,.95.39,3.61-1,3.92-2,.46-1.57-.47-3.54-.81-5.35l-1.3-.07C413.47,292.06,412.28,293.6,409.23,291.36Zm23.89,1.25-1.49.38c1.33,1.31,2.47,3.19,4.06,3.73,1,.33,3.53-1.25,3.75-2.3.32-1.58-.8-3.44-1.14-4.64Z" transform="translate(-308.86 -156.73)"/></svg>